<?xml version="1.0" standalone="no"?>
<!DOCTYPE svg PUBLIC "-//W3C//DTD SVG 20010904//EN"
 "http://www.w3.org/TR/2001/REC-SVG-20010904/DTD/svg10.dtd">
<svg version="1.0" xmlns="http://www.w3.org/2000/svg"
 width="2816.000000pt" height="1536.000000pt" viewBox="0 0 2816.000000 1536.000000"
 preserveAspectRatio="xMidYMid meet">

<g transform="translate(0.000000,1536.000000) scale(0.100000,-0.100000)"
fill="#000000" stroke="none">
<path d="M12493 12920 c-128 -26 -195 -123 -226 -327 l-12 -77 -78 -41 c-87
-44 -181 -123 -227 -190 -36 -52 -91 -186 -113 -275 -9 -36 -24 -128 -32 -205
-10 -85 -21 -145 -30 -155 -10 -11 -11 -20 -3 -34 7 -13 8 -21 2 -23 -9 -3
-63 -34 -217 -124 -100 -59 -282 -179 -272 -179 6 -1 -4 -7 -20 -14 -17 -7
-50 -32 -73 -55 -24 -22 -46 -41 -48 -41 -3 0 -14 -9 -26 -20 -41 -38 1 -20
65 28 176 134 583 396 598 386 5 -3 9 -20 9 -39 0 -24 -7 -39 -26 -54 -15 -12
-31 -21 -35 -21 -30 0 -398 -200 -437 -237 -20 -19 -8 -16 33 9 31 18 38 19
46 7 8 -12 10 -12 18 0 5 8 16 11 25 8 9 -4 16 -2 16 3 0 5 11 9 25 8 14 -1
25 -6 25 -10 0 -4 7 -5 15 -2 8 3 13 11 12 16 -1 6 4 13 11 15 20 8 14 -15
-10 -31 -12 -9 -19 -18 -16 -21 3 -3 69 26 146 65 78 38 143 70 146 70 4 0 6
-20 6 -45 0 -34 -4 -47 -17 -52 -10 -4 -20 -9 -23 -12 -10 -12 -50 -31 -65
-31 -8 0 -15 -4 -15 -9 0 -5 -13 -14 -30 -21 -16 -7 -30 -17 -30 -22 0 -5 15
-1 33 8 17 9 40 21 51 26 10 6 34 18 53 29 18 10 38 19 43 19 4 0 11 -30 15
-67 3 -38 17 -158 31 -268 29 -237 54 -509 54 -584 0 -46 -6 -62 -39 -112 -61
-91 -69 -218 -16 -253 35 -23 95 -20 126 7 95 80 107 253 59 842 -35 421 -40
509 -31 518 5 5 4 26 -2 48 -13 52 -8 57 123 109 58 24 128 53 155 65 28 12
80 34 118 50 74 31 84 48 12 20 -25 -9 -52 -14 -60 -11 -8 3 -14 0 -12 -7 1
-7 -5 -12 -13 -12 -8 0 -24 -8 -34 -17 -10 -10 -23 -15 -27 -12 -4 2 -11 -1
-14 -7 -4 -5 -13 -8 -21 -5 -8 3 -14 2 -14 -3 0 -4 -19 -16 -42 -26 -24 -10
-61 -26 -83 -36 -23 -10 -52 -20 -65 -24 l-25 -6 5 107 5 106 200 99 c159 79
191 98 158 93 -31 -3 -43 -1 -43 8 0 9 -3 9 -10 -2 -6 -9 -5 -17 1 -21 6 -4 3
-9 -7 -13 -12 -5 -23 -1 -32 11 -12 17 -14 17 -23 1 -5 -9 -22 -19 -38 -23
-29 -6 -64 -35 -43 -35 6 0 12 4 14 10 2 5 14 11 28 12 14 2 28 7 31 12 4 5
13 6 20 4 8 -3 -11 -17 -40 -32 -30 -15 -60 -25 -67 -22 -7 3 -15 -3 -18 -12
-4 -10 -16 -18 -28 -19 -22 -2 -22 -1 -4 13 19 14 19 14 -1 14 -15 0 -20 -6
-19 -21 1 -17 -8 -25 -36 -35 -37 -12 -38 -12 -38 10 0 22 17 46 32 46 5 0 4
-10 -3 -21 -8 -16 -8 -20 1 -17 6 2 11 8 11 13 0 19 33 46 51 42 10 -3 16 -1
13 3 -5 9 183 106 198 102 4 -1 7 3 7 9 0 15 -30 4 -162 -62 -65 -33 -125 -59
-133 -59 -18 0 -16 22 16 155 37 152 95 266 151 300 54 31 62 17 54 -95 -4
-55 -5 -100 -3 -100 2 0 74 31 160 69 85 38 226 96 311 127 l156 58 0 85 c-1
47 -5 106 -11 131 -5 25 -16 83 -23 130 -31 188 -101 268 -246 283 -25 3 -64
1 -87 -3z m-723 -1465 c0 -3 -12 -10 -27 -16 -22 -8 -25 -12 -13 -20 10 -7 11
-9 2 -7 -21 6 -17 22 9 35 27 14 29 15 29 8z m-126 -64 c-10 -10 -21 -16 -24
-14 -3 3 4 11 14 19 28 20 33 17 10 -5z m82 -6 c-3 -8 0 -15 6 -15 7 0 3 -7
-8 -15 -23 -17 -34 -19 -34 -4 0 5 5 7 10 4 6 -3 10 -1 10 4 0 6 -6 11 -12 11
-8 0 -5 7 6 15 25 19 30 19 22 0z m-72 -20 c-5 -11 -2 -13 10 -9 28 11 18 -18
-16 -45 -16 -12 -18 -11 -18 3 0 9 8 16 17 16 13 0 14 3 5 12 -14 14 -16 38
-2 38 5 0 7 -7 4 -15z m-37 -20 c0 -8 -4 -15 -9 -15 -4 0 -8 7 -8 15 0 8 4 15
8 15 5 0 9 -7 9 -15z m-87 -41 c0 -8 -9 -14 -19 -14 -11 0 -22 -6 -24 -12 -4
-10 -8 -9 -16 2 -7 10 -6 19 2 28 7 9 13 10 15 3 2 -6 11 -11 19 -11 13 0 13
3 3 15 -11 13 -10 14 4 9 9 -3 16 -12 16 -20z m66 13 c18 7 18 -5 -1 -23 -8
-9 -15 -11 -15 -5 0 6 -6 11 -14 11 -10 0 -12 -7 -8 -22 3 -14 1 -19 -6 -14
-11 6 -9 37 4 57 4 7 10 7 16 1 6 -6 17 -8 24 -5z m-146 -37 c0 -5 -4 -10 -10
-10 -5 0 -10 5 -10 10 0 6 5 10 10 10 6 0 10 -4 10 -10z"/>
<path d="M15590 12690 c-11 -7 -8 -8 13 -6 15 1 30 6 34 9 10 11 -30 8 -47 -3z"/>
<path d="M15717 12686 c-4 -10 0 -12 14 -9 10 3 16 9 13 14 -8 13 -21 11 -27
-5z"/>
<path d="M15860 12689 c0 -5 5 -7 10 -4 6 3 10 8 10 11 0 2 -4 4 -10 4 -5 0
-10 -5 -10 -11z"/>
<path d="M15923 12693 c9 -2 23 -2 30 0 6 3 -1 5 -18 5 -16 0 -22 -2 -12 -5z"/>
<path d="M16440 12587 c14 -8 39 -17 55 -20 l30 -6 -30 13 c-16 8 -41 16 -55
20 l-25 7 25 -14z"/>
<path d="M16430 12549 c0 -13 28 -18 33 -6 3 7 -3 13 -14 13 -11 0 -19 -3 -19
-7z"/>
<path d="M14138 12533 c7 -3 16 -2 19 1 4 3 -2 6 -13 5 -11 0 -14 -3 -6 -6z"/>
<path d="M16490 12520 c14 -10 33 -21 43 -24 15 -4 16 -2 6 10 -6 8 -14 12
-17 10 -2 -3 -11 1 -19 9 -8 8 -20 15 -26 15 -7 0 -1 -9 13 -20z"/>
<path d="M16597 12519 c7 -7 15 -10 18 -7 3 3 -2 9 -12 12 -14 6 -15 5 -6 -5z"/>
<path d="M14723 12477 c-46 -5 -83 -13 -83 -18 0 -4 6 -6 13 -4 12 4 73 10
232 21 50 4 92 8 95 11 7 7 -166 0 -257 -10z"/>
<path d="M15331 12486 c8 -8 98 -10 105 -3 4 4 -19 7 -51 7 -32 0 -56 -2 -54
-4z"/>
<path d="M15455 12480 c3 -5 10 -10 16 -10 5 0 9 5 9 10 0 6 -7 10 -16 10 -8
0 -12 -4 -9 -10z"/>
<path d="M16560 12486 c0 -2 7 -7 16 -10 8 -3 12 -2 9 4 -6 10 -25 14 -25 6z"/>
<path d="M15515 12474 c20 -8 165 -20 165 -14 0 4 -28 10 -61 14 -67 7 -120 7
-104 0z"/>
<path d="M14600 12460 c-13 -8 -12 -10 3 -10 9 0 17 5 17 10 0 12 -1 12 -20 0z"/>
<path d="M15211 12454 c0 -11 3 -14 6 -6 3 7 2 16 -1 19 -3 4 -6 -2 -5 -13z"/>
<path d="M16600 12466 c0 -2 21 -17 48 -32 26 -15 57 -34 70 -42 12 -8 22 -12
22 -9 0 6 -126 87 -135 87 -3 0 -5 -2 -5 -4z"/>
<path d="M14415 12450 l-40 -7 43 -2 c23 0 42 4 42 9 0 6 -1 9 -2 9 -2 -1 -21
-5 -43 -9z"/>
<path d="M14476 12452 c-2 -4 14 -6 37 -4 68 5 76 10 20 11 -28 0 -54 -2 -57
-7z"/>
<path d="M14871 12452 c-1 -18 28 -27 42 -13 14 14 30 14 21 0 -4 -7 -2 -10 5
-8 21 7 17 24 -6 27 -13 2 -23 -1 -23 -7 0 -15 -27 -14 -33 2 -4 9 -6 9 -6 -1z"/>
<path d="M15063 12453 c9 -2 23 -2 30 0 6 3 -1 5 -18 5 -16 0 -22 -2 -12 -5z"/>
<path d="M15120 12445 c-10 -13 -11 -18 -1 -28 10 -9 11 -8 6 5 -5 13 0 21 16
27 16 6 18 10 8 10 -9 1 -22 -6 -29 -14z"/>
<path d="M15175 12450 c3 -5 1 -10 -5 -10 -6 0 -9 -4 -5 -10 9 -14 34 0 28 16
-3 8 -9 14 -15 14 -5 0 -6 -4 -3 -10z"/>
<path d="M15297 12454 c-8 -8 1 -24 14 -24 5 0 9 7 9 15 0 15 -12 20 -23 9z"/>
<path d="M15342 12444 c-7 -8 -8 -14 -3 -14 10 0 25 19 20 25 -2 1 -10 -3 -17
-11z"/>
<path d="M15703 12453 c9 -2 23 -2 30 0 6 3 -1 5 -18 5 -16 0 -22 -2 -12 -5z"/>
<path d="M13818 12443 c7 -3 16 -2 19 1 4 3 -2 6 -13 5 -11 0 -14 -3 -6 -6z"/>
<path d="M13925 12440 c-3 -5 -1 -10 4 -10 6 0 11 5 11 10 0 6 -2 10 -4 10 -3
0 -8 -4 -11 -10z"/>
<path d="M14820 12446 c0 -2 8 -10 18 -17 15 -13 16 -12 3 4 -13 16 -21 21
-21 13z"/>
<path d="M15390 12445 c0 -2 7 -8 15 -15 12 -10 15 -10 15 2 0 8 -7 15 -15 15
-8 0 -15 -1 -15 -2z"/>
<path d="M15760 12446 c0 -2 14 -6 30 -8 17 -3 30 -1 30 4 0 4 -13 8 -30 8
-16 0 -30 -2 -30 -4z"/>
<path d="M13778 12433 c7 -3 16 -2 19 1 4 3 -2 6 -13 5 -11 0 -14 -3 -6 -6z"/>
<path d="M15476 12431 c-3 -4 6 -6 19 -3 14 2 25 6 25 8 0 8 -39 4 -44 -5z"/>
<path d="M15838 12433 c7 -3 16 -2 19 1 4 3 -2 6 -13 5 -11 0 -14 -3 -6 -6z"/>
<path d="M14223 12423 c9 -2 23 -2 30 0 6 3 -1 5 -18 5 -16 0 -22 -2 -12 -5z"/>
<path d="M14775 12420 c3 -5 8 -10 11 -10 2 0 4 5 4 10 0 6 -5 10 -11 10 -5 0
-7 -4 -4 -10z"/>
<path d="M15883 12423 c9 -2 23 -2 30 0 6 3 -1 5 -18 5 -16 0 -22 -2 -12 -5z"/>
<path d="M15938 12413 c6 -2 18 -2 25 0 6 3 1 5 -13 5 -14 0 -19 -2 -12 -5z"/>
<path d="M13740 12394 l-35 -14 35 6 c36 6 46 11 39 18 -2 2 -20 -3 -39 -10z"/>
<path d="M14020 12389 c0 -5 5 -7 10 -4 6 3 10 8 10 11 0 2 -4 4 -10 4 -5 0
-10 -5 -10 -11z"/>
<path d="M15116 12378 c7 -11 34 -10 34 1 0 6 -9 9 -19 8 -11 0 -17 -5 -15 -9z"/>
<path d="M15200 12380 c-9 -6 -10 -10 -3 -10 6 0 15 5 18 10 8 12 4 12 -15 0z"/>
<path d="M15256 12378 c3 -4 9 -8 15 -8 5 0 9 4 9 8 0 5 -7 9 -15 9 -8 0 -12
-4 -9 -9z"/>
<path d="M15290 12380 c0 -5 5 -10 10 -10 6 0 10 5 10 10 0 6 -4 10 -10 10 -5
0 -10 -4 -10 -10z"/>
<path d="M16135 12365 c142 -47 225 -73 225 -69 0 7 -101 47 -179 70 -105 30
-139 30 -46 -1z"/>
<path d="M13640 12370 c-12 -8 -11 -10 7 -10 12 0 25 5 28 10 8 13 -15 13 -35
0z"/>
<path d="M14934 12368 c-3 -4 4 -8 15 -8 12 0 21 4 21 8 0 5 -7 9 -15 9 -9 0
-18 -4 -21 -9z"/>
<path d="M15003 12373 c9 -2 23 -2 30 0 6 3 -1 5 -18 5 -16 0 -22 -2 -12 -5z"/>
<path d="M15063 12373 c9 -2 23 -2 30 0 6 3 -1 5 -18 5 -16 0 -22 -2 -12 -5z"/>
<path d="M16826 12367 c3 -10 9 -15 12 -12 3 3 0 11 -7 18 -10 9 -11 8 -5 -6z"/>
<path d="M13605 12360 c-3 -5 -1 -10 4 -10 6 0 11 5 11 10 0 6 -2 10 -4 10 -3
0 -8 -4 -11 -10z"/>
<path d="M14858 12363 c6 -2 18 -2 25 0 6 3 1 5 -13 5 -14 0 -19 -2 -12 -5z"/>
<path d="M13966 12344 c-6 -15 8 -17 39 -5 18 7 17 8 -7 13 -17 3 -29 0 -32
-8z"/>
<path d="M14030 12349 c0 -5 5 -7 10 -4 6 3 10 8 10 11 0 2 -4 4 -10 4 -5 0
-10 -5 -10 -11z"/>
<path d="M14098 12353 c7 -3 16 -2 19 1 4 3 -2 6 -13 5 -11 0 -14 -3 -6 -6z"/>
<path d="M13550 12340 c-18 -12 -2 -12 25 0 13 6 15 9 5 9 -8 0 -22 -4 -30 -9z"/>
<path d="M13910 12346 c0 -2 7 -9 15 -16 13 -11 14 -10 9 4 -5 14 -24 23 -24
12z"/>
<path d="M14140 12339 c-25 -8 -192 -40 -220 -43 -8 0 -14 4 -13 10 1 7 -7 14
-18 17 -17 5 -18 3 -8 -10 10 -12 10 -16 -2 -24 -8 -5 -18 -9 -24 -10 -35 -3
-60 -8 -140 -28 -95 -24 -178 -50 -159 -51 6 0 63 12 125 26 63 15 206 46 318
69 113 23 196 44 185 46 -10 3 -30 2 -44 -2z"/>
<path d="M15758 12343 c7 -3 16 -2 19 1 4 3 -2 6 -13 5 -11 0 -14 -3 -6 -6z"/>
<path d="M13505 12330 c-16 -7 -17 -9 -3 -9 9 -1 20 4 23 9 7 11 7 11 -20 0z"/>
<path d="M13836 12315 c-3 -9 0 -15 8 -15 7 0 13 7 13 15 0 8 -4 15 -8 15 -4
0 -9 -7 -13 -15z"/>
<path d="M15880 12326 c0 -2 7 -7 16 -10 8 -3 12 -2 9 4 -6 10 -25 14 -25 6z"/>
<path d="M13575 12300 c-3 -5 -1 -10 4 -10 6 0 11 5 11 10 0 6 -2 10 -4 10 -3
0 -8 -4 -11 -10z"/>
<path d="M13743 12293 c14 -14 19 -15 29 -4 11 10 10 11 -4 6 -11 -4 -18 -2
-18 4 0 6 -5 11 -12 11 -8 0 -6 -6 5 -17z"/>
<path d="M14228 12303 c7 -3 16 -2 19 1 4 3 -2 6 -13 5 -11 0 -14 -3 -6 -6z"/>
<path d="M15975 12302 c14 -13 214 -66 222 -58 3 3 -1 6 -10 6 -10 0 -25 4
-35 10 -15 9 -84 29 -121 36 -8 2 -26 6 -40 9 -16 4 -22 3 -16 -3z"/>
<path d="M14110 12289 c-25 -5 -94 -21 -155 -35 -60 -14 -120 -28 -132 -30
-12 -2 -32 -9 -45 -14 -23 -10 -23 -10 2 -6 162 29 371 76 390 87 13 7 13 8 0
8 -8 -1 -35 -5 -60 -10z"/>
<path d="M14340 12289 c0 -5 5 -7 10 -4 6 3 10 8 10 11 0 2 -4 4 -10 4 -5 0
-10 -5 -10 -11z"/>
<path d="M13670 12286 c0 -2 9 -6 20 -9 11 -3 20 -1 20 4 0 5 -9 9 -20 9 -11
0 -20 -2 -20 -4z"/>
<path d="M14280 12280 c-13 -8 -12 -10 3 -10 9 0 17 5 17 10 0 12 -1 12 -20 0z"/>
<path d="M16375 12280 c3 -5 11 -10 16 -10 6 0 7 5 4 10 -3 6 -11 10 -16 10
-6 0 -7 -4 -4 -10z"/>
<path d="M14190 12268 c-25 -5 -54 -11 -65 -13 -92 -18 -249 -56 -254 -61 -8
-9 42 0 211 36 75 17 146 30 157 30 12 0 21 5 21 10 0 12 -8 11 -70 -2z"/>
<path d="M16410 12270 c0 -6 7 -10 15 -10 8 0 15 2 15 4 0 2 -7 6 -15 10 -8 3
-15 1 -15 -4z"/>
<path d="M15190 12259 c-57 -5 -52 -6 43 -7 59 -1 107 2 107 7 0 9 -46 9 -150
0z"/>
<path d="M15045 12240 c-3 -6 1 -7 9 -4 18 7 21 14 7 14 -6 0 -13 -4 -16 -10z"/>
<path d="M15858 12243 c6 -2 18 -2 25 0 6 3 1 5 -13 5 -14 0 -19 -2 -12 -5z"/>
<path d="M15910 12246 c0 -2 7 -6 15 -10 8 -3 15 -1 15 4 0 6 -7 10 -15 10 -8
0 -15 -2 -15 -4z"/>
<path d="M14870 12229 c0 -4 10 -6 21 -4 32 6 34 13 4 13 -14 0 -25 -4 -25 -9z"/>
<path d="M15980 12233 c0 -5 17 -10 38 -11 20 -1 79 -13 130 -26 50 -13 92
-20 92 -16 0 8 -140 45 -212 55 -29 4 -48 3 -48 -2z"/>
<path d="M14750 12221 c0 -9 98 -6 108 3 3 3 -20 6 -51 6 -31 0 -57 -4 -57 -9z"/>
<path d="M15670 12221 c0 -8 65 -15 220 -27 36 -2 48 -1 35 5 -11 5 -65 12
-120 16 -55 4 -108 9 -117 11 -10 1 -18 -1 -18 -5z"/>
<path d="M14639 12216 c-4 -3 -134 -15 -176 -16 -13 0 -23 -5 -23 -11 0 -5 3
-8 8 -6 4 3 41 8 82 11 41 4 104 9 140 13 36 3 67 7 69 9 5 5 -94 5 -100 0z"/>
<path d="M13040 12200 c-8 -5 -10 -10 -5 -10 6 0 17 5 25 10 8 5 11 10 5 10
-5 0 -17 -5 -25 -10z"/>
<path d="M15980 12196 c0 -9 30 -14 35 -6 4 6 -3 10 -14 10 -12 0 -21 -2 -21
-4z"/>
<path d="M12950 12170 c-25 -10 -90 -35 -145 -55 -172 -63 -355 -139 -355
-147 0 -5 8 -4 18 1 9 5 37 17 62 26 25 10 54 21 65 25 74 29 91 34 103 32 6
-2 12 1 12 6 0 15 53 21 70 9 20 -16 22 -47 3 -47 -10 0 -13 6 -8 18 5 14 4
15 -6 5 -18 -18 -34 -16 -20 1 10 12 8 13 -8 9 -17 -4 -19 -9 -10 -24 6 -13 6
-19 -1 -19 -5 0 -10 5 -10 10 0 6 -7 10 -15 10 -20 0 -19 -16 1 -24 9 -3 14
-12 11 -20 -7 -18 33 -9 49 11 7 7 16 13 20 12 16 -3 74 13 80 22 3 5 10 7 15
4 5 -4 9 -2 9 3 0 14 -34 25 -38 13 -2 -6 -10 -11 -18 -11 -8 0 -14 -5 -14
-12 0 -17 -10 -4 -15 20 -3 16 1 19 17 14 15 -3 19 -2 14 7 -5 8 0 10 18 7 14
-3 26 -1 26 4 0 5 7 7 15 4 11 -5 13 -2 9 9 -4 12 -1 15 15 12 12 -2 21 0 21
6 0 14 -47 11 -63 -5 -8 -8 -28 -17 -45 -19 -17 -3 -36 -8 -41 -12 -6 -3 -11
-2 -11 4 0 10 31 23 60 26 8 0 27 9 41 18 15 10 35 19 45 22 26 5 94 34 94 40
0 10 -26 4 -70 -15z"/>
<path d="M13455 12180 c-4 -7 3 -8 22 -4 38 9 42 14 10 14 -14 0 -29 -5 -32
-10z"/>
<path d="M13785 12174 c-26 -13 -27 -14 -5 -10 14 3 31 6 38 6 6 0 12 5 12 10
0 13 -8 12 -45 -6z"/>
<path d="M14339 12186 c-2 -2 -33 -7 -69 -10 -179 -19 -394 -52 -350 -55 8 0
65 6 125 14 61 9 155 20 210 26 55 6 118 14 140 19 l40 8 -46 1 c-25 1 -48 -1
-50 -3z"/>
<path d="M15090 12179 c0 -9 80 -16 86 -8 2 4 -16 9 -41 11 -25 2 -45 0 -45
-3z"/>
<path d="M13415 12170 c-19 -8 -19 -9 3 -9 12 -1 22 4 22 9 0 6 -1 10 -2 9 -2
0 -12 -4 -23 -9z"/>
<path d="M15195 12170 c-3 -5 -1 -10 4 -10 6 0 11 5 11 10 0 6 -2 10 -4 10 -3
0 -8 -4 -11 -10z"/>
<path d="M15255 12160 c3 -5 8 -10 11 -10 2 0 4 5 4 10 0 6 -5 10 -11 10 -5 0
-7 -4 -4 -10z"/>
<path d="M13368 12153 c7 -3 16 -2 19 1 4 3 -2 6 -13 5 -11 0 -14 -3 -6 -6z"/>
<path d="M13728 12153 c7 -3 16 -2 19 1 4 3 -2 6 -13 5 -11 0 -14 -3 -6 -6z"/>
<path d="M15300 12156 c0 -8 51 -13 56 -5 3 5 -9 9 -25 9 -17 0 -31 -2 -31 -4z"/>
<path d="M15374 12149 c-3 -5 9 -9 25 -9 17 0 31 2 31 4 0 8 -51 13 -56 5z"/>
<path d="M15818 12153 c6 -2 18 -2 25 0 6 3 1 5 -13 5 -14 0 -19 -2 -12 -5z"/>
<path d="M16984 12147 c4 -11 9 -31 12 -45 4 -15 10 -31 14 -37 4 -5 16 -46
25 -90 10 -44 21 -84 26 -90 22 -23 -33 191 -62 243 -11 21 -18 29 -15 19z"/>
<path d="M13305 12140 c-13 -5 -14 -9 -5 -9 8 0 24 4 35 9 13 5 14 9 5 9 -8 0
-24 -4 -35 -9z"/>
<path d="M15446 12141 c-3 -5 11 -11 32 -15 58 -9 70 -6 32 9 -42 16 -57 18
-64 6z"/>
<path d="M15630 12140 c0 -5 7 -10 16 -10 8 0 12 5 9 10 -3 6 -10 10 -16 10
-5 0 -9 -4 -9 -10z"/>
<path d="M13620 12128 c0 -4 4 -8 9 -8 6 0 12 4 15 8 3 5 -1 9 -9 9 -8 0 -15
-4 -15 -9z"/>
<path d="M12957 12124 c8 -4 7 -11 -4 -24 -9 -10 -20 -17 -25 -14 -4 3 -5 -2
-1 -12 5 -13 2 -15 -15 -10 -17 6 -21 4 -16 -8 5 -12 10 -13 30 -4 13 6 21 15
18 20 -3 5 6 6 20 2 16 -4 26 -2 26 5 0 6 -7 8 -15 5 -8 -4 -15 -2 -15 4 0 11
25 10 36 -1 14 -13 36 -7 30 8 -7 18 5 20 22 3 7 -7 12 -8 12 -2 0 6 -12 16
-26 22 -14 7 -23 8 -19 3 10 -17 -13 -22 -28 -6 -9 8 -22 15 -29 14 -9 0 -9
-2 -1 -5z"/>
<path d="M13223 12123 c-13 -2 -23 -8 -23 -13 0 -8 69 6 79 16 5 5 -25 3 -56
-3z"/>
<path d="M13595 12120 c3 -5 8 -10 11 -10 2 0 4 5 4 10 0 6 -5 10 -11 10 -5 0
-7 -4 -4 -10z"/>
<path d="M15555 12115 c45 -19 135 -41 135 -34 0 14 -48 30 -100 34 -25 2 -40
2 -35 0z"/>
<path d="M15709 12104 c19 -8 36 -12 39 -9 5 5 -43 25 -61 25 -7 -1 3 -7 22
-16z"/>
<path d="M13115 12090 c-160 -48 -196 -61 -275 -93 -117 -48 -202 -88 -197
-93 2 -2 75 25 163 60 87 35 204 77 259 95 91 28 146 52 120 50 -5 0 -37 -9
-70 -19z"/>
<path d="M13390 12100 c-9 -6 -10 -10 -3 -10 6 0 15 5 18 10 8 12 4 12 -15 0z"/>
<path d="M16964 12096 c24 -67 50 -194 57 -271 7 -90 7 -90 4 25 -3 113 -29
228 -57 255 -8 7 -9 4 -4 -9z"/>
<path d="M15330 12086 c0 -2 7 -7 16 -10 8 -3 12 -2 9 4 -6 10 -25 14 -25 6z"/>
<path d="M15760 12080 c0 -5 10 -10 23 -10 18 0 19 2 7 10 -19 13 -30 13 -30
0z"/>
<path d="M16717 12071 c23 -22 39 -28 28 -11 -3 5 -16 15 -28 21 l-22 11 22
-21z"/>
<path d="M13688 12073 c7 -3 16 -2 19 1 4 3 -2 6 -13 5 -11 0 -14 -3 -6 -6z"/>
<path d="M15395 12070 c27 -12 43 -12 25 0 -8 5 -22 9 -30 9 -10 0 -8 -3 5 -9z"/>
<path d="M15710 12070 c20 -13 43 -13 35 0 -3 6 -16 10 -28 10 -18 0 -19 -2
-7 -10z"/>
<path d="M13380 12061 c0 -6 -3 -10 -7 -10 -29 5 -63 -3 -58 -12 4 -6 14 -7
24 -4 9 4 24 8 35 11 25 5 30 10 17 19 -6 3 -11 1 -11 -4z"/>
<path d="M13638 12063 c6 -2 18 -2 25 0 6 3 1 5 -13 5 -14 0 -19 -2 -12 -5z"/>
<path d="M15440 12066 c0 -2 9 -6 20 -9 11 -3 20 -1 20 4 0 5 -9 9 -20 9 -11
0 -20 -2 -20 -4z"/>
<path d="M15815 12061 c-2 -5 4 -11 15 -14 11 -3 20 -2 20 3 0 12 -28 21 -35
11z"/>
<path d="M15495 12051 c6 -6 26 -12 45 -15 19 -2 53 -11 75 -19 22 -8 57 -17
78 -21 20 -4 37 -11 37 -17 0 -5 -7 -9 -16 -7 -10 2 -19 -2 -21 -7 -2 -6 18
-12 50 -13 29 -1 68 -7 87 -12 94 -27 4 25 -100 58 -174 54 -253 72 -235 53z
m272 -87 c-3 -3 -12 -4 -19 -1 -8 3 -5 6 6 6 11 1 17 -2 13 -5z"/>
<path d="M13165 12038 c-16 -5 -36 -11 -43 -14 -11 -3 -10 -7 2 -20 9 -8 16
-20 16 -25 0 -5 7 -9 16 -9 8 0 13 4 10 9 -3 5 0 8 7 8 23 -2 136 36 131 44
-2 4 -21 2 -42 -5 -20 -7 -43 -11 -49 -9 -7 3 -13 0 -13 -5 0 -6 -13 -10 -30
-10 -16 1 -30 5 -30 10 0 4 3 8 8 9 11 1 34 7 67 18 28 9 28 9 5 9 -14 0 -38
-4 -55 -10z"/>
<path d="M16780 12009 c16 -18 30 -36 30 -41 0 -5 5 -14 10 -21 6 -7 19 -23
30 -37 10 -14 19 -20 20 -15 0 15 -98 145 -110 145 -6 0 3 -14 20 -31z"/>
<path d="M13435 12020 c-4 -7 3 -8 22 -4 38 9 42 14 10 14 -14 0 -29 -5 -32
-10z"/>
<path d="M13058 12006 c-42 -13 -59 -26 -34 -26 18 0 76 27 76 35 0 3 -1 5 -2
4 -2 -1 -20 -6 -40 -13z"/>
<path d="M13370 12009 c-118 -32 -180 -53 -180 -59 0 -5 39 2 88 15 95 25 142
42 142 50 0 6 -6 6 -50 -6z"/>
<path d="M14908 12013 c6 -2 18 -2 25 0 6 3 1 5 -13 5 -14 0 -19 -2 -12 -5z"/>
<path d="M14485 11999 c-28 -11 47 -11 100 0 38 8 37 9 -20 9 -33 -1 -69 -4
-80 -9z"/>
<path d="M14363 11992 c-18 -2 -33 -6 -33 -10 0 -10 113 -2 125 9 10 10 -1 10
-92 1z"/>
<path d="M15535 11990 c3 -5 13 -10 21 -10 8 0 12 5 9 10 -3 6 -13 10 -21 10
-8 0 -12 -4 -9 -10z"/>
<path d="M13085 11981 c-11 -5 -23 -7 -27 -4 -5 2 -8 -1 -8 -8 0 -6 8 -9 20
-6 11 3 23 1 26 -4 6 -11 34 7 34 22 0 11 -18 11 -45 0z"/>
<path d="M14295 11980 c-3 -5 -1 -10 4 -10 6 0 11 5 11 10 0 6 -2 10 -4 10 -3
0 -8 -4 -11 -10z"/>
<path d="M15598 11983 c7 -3 16 -2 19 1 4 3 -2 6 -13 5 -11 0 -14 -3 -6 -6z"/>
<path d="M16660 11982 c0 -5 11 -19 25 -32 14 -13 25 -20 25 -16 0 4 -11 18
-25 32 -14 14 -25 21 -25 16z"/>
<path d="M12960 11971 c-8 -5 -40 -17 -70 -27 -31 -10 -47 -20 -38 -22 10 -2
31 3 48 12 16 8 30 11 30 7 0 -4 7 -8 15 -8 8 0 12 4 9 9 -3 4 6 12 20 18 14
5 26 12 26 15 0 8 -23 5 -40 -4z"/>
<path d="M15922 11971 c2 -8 13 -19 24 -25 10 -6 22 -15 26 -21 4 -5 10 -7 13
-3 4 4 -6 15 -22 24 -15 10 -32 23 -36 29 -5 6 -7 5 -5 -4z"/>
<path d="M16730 11969 c0 -5 5 -7 10 -4 6 3 10 8 10 11 0 2 -4 4 -10 4 -5 0
-10 -5 -10 -11z"/>
<path d="M12420 11960 c-9 -6 -10 -10 -3 -10 6 0 15 5 18 10 8 12 4 12 -15 0z"/>
<path d="M14200 11959 c0 -5 5 -7 10 -4 6 3 10 8 10 11 0 2 -4 4 -10 4 -5 0
-10 -5 -10 -11z"/>
<path d="M15368 11963 c6 -2 18 -2 25 0 6 3 1 5 -13 5 -14 0 -19 -2 -12 -5z"/>
<path d="M15410 11959 c0 -3 26 -11 57 -18 72 -14 80 -14 65 1 -13 13 -122 28
-122 17z"/>
<path d="M14110 11950 c0 -5 4 -10 9 -10 6 0 13 5 16 10 3 6 -1 10 -9 10 -9 0
-16 -4 -16 -10z"/>
<path d="M14040 11939 c0 -5 5 -7 10 -4 6 3 10 8 10 11 0 2 -4 4 -10 4 -5 0
-10 -5 -10 -11z"/>
<path d="M14078 11943 c7 -3 16 -2 19 1 4 3 -2 6 -13 5 -11 0 -14 -3 -6 -6z"/>
<path d="M15555 11930 c3 -5 8 -10 11 -10 2 0 4 5 4 10 0 6 -5 10 -11 10 -5 0
-7 -4 -4 -10z"/>
<path d="M16770 11930 c0 -5 7 -7 15 -4 8 4 15 8 15 10 0 2 -7 4 -15 4 -8 0
-15 -4 -15 -10z"/>
<path d="M12330 11920 c-13 -8 -12 -10 3 -10 9 0 17 5 17 10 0 12 -1 12 -20 0z"/>
<path d="M15580 11916 c0 -2 9 -6 20 -9 11 -3 18 -1 14 4 -5 9 -34 13 -34 5z"/>
<path d="M15900 11910 c8 -5 20 -10 25 -10 6 0 3 5 -5 10 -8 5 -19 10 -25 10
-5 0 -3 -5 5 -10z"/>
<path d="M16675 11891 c8 -17 19 -33 25 -36 5 -3 10 -16 10 -28 0 -18 2 -19
11 -7 8 12 9 12 7 -5 -1 -11 1 -21 6 -22 5 -1 13 -7 17 -15 20 -30 8 13 -13
49 -43 75 -97 129 -63 64z"/>
<path d="M16735 11910 c3 -5 11 -10 16 -10 6 0 7 5 4 10 -3 6 -11 10 -16 10
-6 0 -7 -4 -4 -10z"/>
<path d="M16005 11900 c3 -5 8 -10 11 -10 2 0 4 5 4 10 0 6 -5 10 -11 10 -5 0
-7 -4 -4 -10z"/>
<path d="M12495 11849 c-66 -27 -132 -56 -146 -64 -35 -19 -79 -36 -79 -30 0
3 11 10 25 15 14 5 25 14 25 20 0 7 -16 3 -37 -9 -21 -11 -90 -44 -154 -74
l-116 -54 -1 -44 c-1 -29 1 -39 7 -30 5 8 7 20 4 28 -3 7 0 13 6 13 6 0 11 6
11 14 0 16 27 29 35 17 6 -11 65 -20 65 -10 0 4 -7 9 -15 13 -8 3 -15 10 -15
16 0 16 93 56 98 42 2 -6 26 1 60 18 31 15 84 39 117 53 95 40 251 116 240
116 -5 0 -64 -22 -130 -50z m-390 -189 c3 -5 -1 -10 -9 -10 -9 0 -16 5 -16 10
0 6 4 10 9 10 6 0 13 -4 16 -10z"/>
<path d="M13670 11890 c0 -5 5 -10 10 -10 6 0 10 5 10 10 0 6 -4 10 -10 10 -5
0 -10 -4 -10 -10z"/>
<path d="M15860 11891 c13 -9 12 -11 -5 -11 -17 0 -17 -2 -5 -10 22 -14 29
-12 26 7 -2 9 -9 19 -17 21 -11 3 -11 1 1 -7z"/>
<path d="M16825 11890 c-3 -5 -1 -10 5 -10 6 0 8 -5 4 -12 -4 -7 -3 -8 4 -4 6
4 9 13 5 21 -6 18 -10 19 -18 5z"/>
<path d="M12720 11880 c-9 -6 -10 -10 -3 -10 6 0 15 5 18 10 8 12 4 12 -15 0z"/>
<path d="M13407 11879 c7 -7 15 -10 18 -7 3 3 -2 9 -12 12 -14 6 -15 5 -6 -5z"/>
<path d="M13545 11869 c-49 -11 -98 -18 -107 -15 -10 2 -18 0 -18 -4 0 -7 -41
-19 -120 -35 -29 -6 -198 -52 -219 -60 -8 -3 -12 -8 -9 -10 3 -3 68 10 144 29
76 18 202 48 279 66 130 31 194 51 155 49 -8 -1 -55 -10 -105 -20z"/>
<path d="M15950 11880 c20 -13 33 -13 25 0 -3 6 -14 10 -23 10 -15 0 -15 -2
-2 -10z"/>
<path d="M16777 11867 c-3 -8 3 -27 14 -43 22 -34 25 -20 5 26 -9 22 -15 27
-19 17z"/>
<path d="M16895 11832 c14 -29 27 -52 30 -52 6 0 -31 80 -44 93 -6 6 0 -12 14
-41z"/>
<path d="M12660 11855 c-14 -8 -20 -14 -15 -14 6 0 21 6 35 14 14 8 21 14 15
14 -5 0 -21 -6 -35 -14z"/>
<path d="M15898 11852 c4 -12 -2 -14 -28 -10 -30 4 -31 4 -14 -8 10 -7 25 -18
32 -25 10 -9 13 -7 10 7 -2 12 2 18 10 16 8 -1 11 2 6 9 -3 6 0 15 7 20 10 6
8 8 -8 7 -14 -2 -19 -7 -15 -16z"/>
<path d="M15765 11839 c22 -11 59 -32 83 -46 24 -14 46 -23 48 -20 7 6 -51 47
-66 47 -7 0 -9 8 -5 23 5 17 4 18 -4 7 -8 -12 -15 -12 -44 -2 -51 18 -56 14
-12 -9z"/>
<path d="M12595 11830 c-8 -13 5 -13 25 0 13 8 13 10 -2 10 -9 0 -20 -4 -23
-10z"/>
<path d="M13268 11833 c7 -3 16 -2 19 1 4 3 -2 6 -13 5 -11 0 -14 -3 -6 -6z"/>
<path d="M16575 11830 c-3 -5 -1 -10 4 -10 6 0 11 5 11 10 0 6 -2 10 -4 10 -3
0 -8 -4 -11 -10z"/>
<path d="M16825 11830 c-8 -13 3 -30 18 -30 8 0 7 3 -2 9 -7 5 -10 14 -7 20 4
6 5 11 2 11 -3 0 -8 -4 -11 -10z"/>
<path d="M12525 11801 c-22 -11 -35 -19 -30 -19 14 -1 93 36 80 37 -5 0 -28
-8 -50 -18z"/>
<path d="M12390 11750 c-151 -56 -189 -76 -183 -98 3 -13 11 -18 19 -15 8 3
11 9 8 14 -3 5 7 9 22 9 23 0 25 2 14 16 -8 8 -9 14 -4 13 10 -2 14 -1 132 49
45 19 82 36 82 38 0 7 -12 3 -90 -26z"/>
<path d="M16820 11760 c0 -11 5 -20 10 -20 6 0 10 9 10 20 0 11 -4 20 -10 20
-5 0 -10 -9 -10 -20z"/>
<path d="M15910 11761 c0 -5 7 -12 16 -15 14 -5 15 -4 4 9 -14 17 -20 19 -20
6z"/>
<path d="M16760 11751 c0 -6 5 -13 10 -16 6 -4 8 -10 5 -15 -3 -5 -1 -11 5
-15 11 -7 12 0 4 33 -6 21 -24 31 -24 13z"/>
<path d="M13040 11740 c-13 -8 -12 -10 3 -10 9 0 17 5 17 10 0 12 -1 12 -20 0z"/>
<path d="M12900 11698 c-116 -36 -152 -50 -147 -54 2 -3 64 16 138 40 74 24
127 44 119 44 -8 0 -58 -13 -110 -30z"/>
<path d="M17021 11714 c0 -11 3 -14 6 -6 3 7 2 16 -1 19 -3 4 -6 -2 -5 -13z"/>
<path d="M17022 11670 c0 -14 2 -19 5 -12 2 6 2 18 0 25 -3 6 -5 1 -5 -13z"/>
<path d="M12149 11667 c6 -8 9 -23 6 -35 -4 -22 -3 -22 20 -5 27 20 33 38 10
29 -9 -3 -18 1 -21 9 -4 8 -11 15 -16 15 -7 0 -6 -5 1 -13z"/>
<path d="M12292 11671 c4 -13 18 -16 19 -4 0 4 -5 9 -11 12 -7 2 -11 -2 -8 -8z"/>
<path d="M12705 11630 c-8 -13 5 -13 25 0 13 8 13 10 -2 10 -9 0 -20 -4 -23
-10z"/>
<path d="M11730 11619 c0 -5 5 -7 10 -4 6 3 10 8 10 11 0 2 -4 4 -10 4 -5 0
-10 -5 -10 -11z"/>
<path d="M12534 11621 c4 -5 1 -11 -6 -13 -9 -3 -9 -6 0 -12 7 -4 12 -2 12 4
0 6 5 8 13 4 8 -5 8 -2 -2 9 -14 18 -26 23 -17 8z"/>
<path d="M12658 11615 c-3 -3 -16 -8 -29 -10 -13 -3 -41 -12 -61 -21 -41 -18
-71 -13 -62 11 3 8 2 15 -4 15 -11 0 -11 -18 0 -36 9 -13 -157 -78 -178 -70
-9 3 -12 1 -9 -4 4 -6 -14 -20 -40 -31 -26 -11 -44 -23 -42 -26 3 -2 14 0 24
6 11 5 111 44 224 86 112 43 206 79 208 81 2 2 -2 4 -11 4 -8 0 -17 -2 -20 -5z"/>
<path d="M12450 11603 c-36 -12 -161 -75 -157 -79 7 -7 102 33 162 68 29 17
27 22 -5 11z"/>
<path d="M16874 11490 c-1 -124 4 -147 13 -63 10 83 7 183 -4 183 -5 0 -8 -54
-9 -120z"/>
<path d="M12235 11590 c-3 -5 -1 -10 4 -10 6 0 11 5 11 10 0 6 -2 10 -4 10 -3
0 -8 -4 -11 -10z"/>
<path d="M17043 11570 c-3 -11 -9 -20 -13 -20 -4 0 -5 -11 -3 -24 3 -13 0 -34
-7 -46 -6 -12 -9 -24 -6 -28 9 -8 16 3 22 34 3 16 9 46 14 67 8 38 2 53 -7 17z"/>
<path d="M16080 11566 c0 -4 7 -33 16 -64 9 -31 17 -89 18 -129 0 -40 4 -73 9
-73 14 0 7 159 -9 207 -15 44 -34 78 -34 59z"/>
<path d="M17002 11550 c0 -14 2 -19 5 -12 2 6 2 18 0 25 -3 6 -5 1 -5 -13z"/>
<path d="M12096 11537 c3 -10 9 -15 12 -12 3 3 0 11 -7 18 -10 9 -11 8 -5 -6z"/>
<path d="M11540 11520 c-9 -6 -10 -10 -3 -10 6 0 15 5 18 10 8 12 4 12 -15 0z"/>
<path d="M12247 11512 c-9 -2 -15 -8 -12 -13 4 -5 1 -9 -4 -9 -6 0 -11 -4 -11
-9 0 -15 38 -1 45 16 7 19 5 20 -18 15z"/>
<path d="M12695 11449 c-253 -89 -255 -90 -261 -100 -3 -5 2 -9 10 -9 13 0 14
-18 11 -117 -5 -163 -14 -812 -21 -1668 -7 -763 -7 -760 -53 -785 -34 -18 -68
-12 -91 18 -22 27 -22 30 -16 292 4 146 9 290 11 320 2 30 7 165 10 300 3 135
7 290 10 345 2 55 7 198 11 318 3 121 7 231 9 245 2 15 7 167 10 337 4 171 8
322 10 338 3 34 -3 34 -80 -3 l-63 -30 -6 -197 c-3 -109 -8 -252 -11 -318 -2
-66 -7 -181 -10 -255 -11 -299 -15 -413 -20 -590 -3 -102 -7 -214 -10 -250 -9
-141 -28 -998 -22 -1013 6 -16 44 -17 433 -17 l427 0 -7 323 c-4 177 -9 336
-11 352 -2 17 -6 147 -10 290 -3 143 -7 305 -10 360 -3 55 -7 183 -10 285 -3
102 -12 385 -20 630 -8 245 -15 493 -16 553 -1 92 -4 107 -18 106 -9 0 -92
-27 -186 -60z"/>
<path d="M11459 11462 c9 -7 10 -11 2 -15 -7 -4 -8 -5 0 -3 15 2 13 20 -3 24
-10 3 -10 2 1 -6z"/>
<path d="M12205 11440 c-3 -5 -1 -10 4 -10 6 0 11 5 11 10 0 6 -2 10 -4 10 -3
0 -8 -4 -11 -10z"/>
<path d="M12175 11431 c-3 -5 -19 -12 -35 -16 -16 -4 -32 -10 -35 -15 -3 -5
15 -2 40 6 25 9 45 20 45 25 0 12 -7 12 -15 0z"/>
<path d="M11395 11420 c-3 -5 -13 -6 -22 -3 -11 4 -14 3 -9 -5 7 -11 -7 -17
-29 -12 -5 1 -7 -2 -3 -6 5 -4 -8 -18 -28 -32 -19 -13 -33 -26 -30 -29 3 -3
40 17 82 46 42 28 69 51 61 51 -9 0 -18 -4 -22 -10z"/>
<path d="M17010 11420 c0 -5 5 -10 10 -10 6 0 10 5 10 10 0 6 -4 10 -10 10 -5
0 -10 -4 -10 -10z"/>
<path d="M12040 11370 c-8 -5 -10 -10 -5 -10 6 0 17 5 25 10 8 5 11 10 5 10
-5 0 -17 -5 -25 -10z"/>
<path d="M11240 11319 c0 -5 5 -7 10 -4 6 3 10 8 10 11 0 2 -4 4 -10 4 -5 0
-10 -5 -10 -11z"/>
<path d="M16110 11270 c0 -36 -58 -172 -110 -257 -27 -46 -46 -83 -41 -83 10
0 61 75 61 89 0 5 6 16 13 23 40 41 109 248 83 248 -3 0 -6 -9 -6 -20z"/>
<path d="M16784 11166 c-28 -64 -48 -114 -45 -111 15 9 103 203 99 216 -2 6
-26 -42 -54 -105z"/>
<path d="M16956 11263 c-6 -14 -5 -15 5 -6 7 7 10 15 7 18 -3 3 -9 -2 -12 -12z"/>
<path d="M16768 11248 c-12 -23 -23 -66 -14 -57 9 8 37 79 31 79 -2 0 -10 -10
-17 -22z"/>
<path d="M16721 11244 c0 -11 3 -14 6 -6 3 7 2 16 -1 19 -3 4 -6 -2 -5 -13z"/>
<path d="M11447 11233 c-11 -10 -8 -33 4 -33 6 0 9 7 5 15 -3 8 -1 15 3 15 5
0 12 -6 14 -12 3 -8 6 -6 6 5 1 17 -19 23 -32 10z"/>
<path d="M11410 11220 c0 -5 5 -10 11 -10 5 0 7 5 4 10 -3 6 -8 10 -11 10 -2
0 -4 -4 -4 -10z"/>
<path d="M16695 11180 c-13 -29 -15 -44 -8 -51 8 -8 13 -7 18 2 6 8 4 10 -5 4
-10 -6 -12 -4 -7 9 4 10 7 20 7 22 0 3 3 3 8 1 4 -3 7 8 8 24 1 16 0 29 -1 29
-1 0 -10 -18 -20 -40z"/>
<path d="M11246 11194 c-11 -7 -17 -16 -15 -19 3 -3 14 2 25 9 10 8 17 17 14
19 -3 3 -14 -1 -24 -9z"/>
<path d="M11415 11190 c3 -5 8 -10 11 -10 2 0 4 5 4 10 0 6 -5 10 -11 10 -5 0
-7 -4 -4 -10z"/>
<path d="M11587 11173 c-10 -9 -9 -23 1 -23 5 0 9 7 9 15 0 17 -1 18 -10 8z"/>
<path d="M16196 11164 c-4 -9 -4 -19 -1 -22 2 -3 7 3 11 12 4 9 4 19 1 22 -2
3 -7 -3 -11 -12z"/>
<path d="M16730 11161 c0 -10 -11 -35 -25 -55 -13 -20 -21 -36 -17 -36 4 0 3
-4 -3 -8 -15 -10 -37 -52 -28 -52 11 0 57 75 77 124 19 45 19 46 6 46 -5 0
-10 -8 -10 -19z"/>
<path d="M11199 11153 c-13 -16 -12 -17 4 -4 16 13 21 21 13 21 -2 0 -10 -8
-17 -17z"/>
<path d="M16859 11089 c-24 -44 -68 -117 -97 -161 -29 -44 -51 -82 -49 -85 6
-6 145 207 176 270 41 80 17 62 -30 -24z"/>
<path d="M11535 11140 c-3 -5 -2 -10 4 -10 5 0 13 5 16 10 3 6 2 10 -4 10 -5
0 -13 -4 -16 -10z"/>
<path d="M16815 11140 c3 -5 11 -10 16 -10 6 0 7 5 4 10 -3 6 -11 10 -16 10
-6 0 -7 -4 -4 -10z"/>
<path d="M11463 11111 c-18 -8 -33 -18 -33 -23 0 -8 48 9 64 24 17 14 1 14
-31 -1z"/>
<path d="M16177 11110 c-3 -11 -2 -20 3 -20 4 0 10 9 13 20 3 11 2 20 -3 20
-4 0 -10 -9 -13 -20z"/>
<path d="M16406 11105 c-9 -26 -7 -32 5 -12 6 10 9 21 6 23 -2 3 -7 -2 -11
-11z"/>
<path d="M16137 11099 c7 -7 15 -10 18 -7 3 3 -2 9 -12 12 -14 6 -15 5 -6 -5z"/>
<path d="M11017 11073 c-4 -3 -7 -11 -7 -17 0 -6 5 -5 12 2 6 6 9 14 7 17 -3
3 -9 2 -12 -2z"/>
<path d="M11271 11018 c-68 -32 -121 -61 -118 -64 3 -3 13 -1 24 4 10 5 61 29
113 53 97 45 117 56 109 63 -2 2 -60 -23 -128 -56z"/>
<path d="M16095 11070 c-3 -5 -1 -10 4 -10 6 0 11 5 11 10 0 6 -2 10 -4 10 -3
0 -8 -4 -11 -10z"/>
<path d="M16163 11074 c3 -4 -3 -24 -13 -45 -11 -21 -20 -46 -20 -56 1 -10 12
9 25 41 29 69 28 66 13 66 -6 0 -9 -3 -5 -6z"/>
<path d="M16380 11050 c-6 -12 -9 -24 -7 -27 3 -2 11 5 17 17 6 12 9 24 7 27
-3 2 -11 -5 -17 -17z"/>
<path d="M16700 11005 c-7 -9 -10 -18 -7 -21 3 -3 10 4 17 15 13 25 8 27 -10
6z"/>
<path d="M16355 10989 c-4 -6 -5 -12 -2 -15 2 -3 7 2 10 11 7 17 1 20 -8 4z"/>
<path d="M16387 10967 c-3 -8 0 -14 7 -14 7 0 13 6 13 14 0 7 -4 13 -8 13 -4
0 -9 -6 -12 -13z"/>
<path d="M16321 10924 c0 -11 3 -14 6 -6 3 7 2 16 -1 19 -3 4 -6 -2 -5 -13z"/>
<path d="M16370 10929 c0 -5 5 -7 10 -4 6 3 10 8 10 11 0 2 -4 4 -10 4 -5 0
-10 -5 -10 -11z"/>
<path d="M15931 10902 c-17 -31 -13 -40 5 -14 9 13 14 26 11 29 -3 2 -10 -4
-16 -15z"/>
<path d="M16367 10891 c-4 -17 -3 -21 5 -13 5 5 8 16 6 23 -3 8 -7 3 -11 -10z"/>
<path d="M16509 10868 c-43 -55 -41 -53 -128 -142 -41 -42 -71 -76 -66 -76 12
0 185 178 185 191 0 5 5 7 10 4 6 -3 10 1 10 9 0 8 7 22 16 31 9 9 14 18 11
21 -2 3 -20 -14 -38 -38z"/>
<path d="M16301 10884 c0 -11 3 -14 6 -6 3 7 2 16 -1 19 -3 4 -6 -2 -5 -13z"/>
<path d="M15886 10835 c-9 -14 -13 -25 -8 -25 5 0 14 11 20 25 6 14 10 25 8
25 -2 0 -11 -11 -20 -25z"/>
<path d="M16280 10845 c0 -8 2 -15 4 -15 2 0 6 7 10 15 3 8 1 15 -4 15 -6 0
-10 -7 -10 -15z"/>
<path d="M16042 10765 c-23 -47 -53 -100 -67 -119 -14 -18 -25 -37 -25 -43 0
-5 -9 -18 -20 -28 -11 -10 -17 -22 -14 -27 5 -8 124 162 124 177 0 4 12 31 26
61 14 31 24 57 21 60 -2 2 -23 -34 -45 -81z"/>
<path d="M16335 10819 c-4 -6 -5 -12 -2 -15 2 -3 7 2 10 11 7 17 1 20 -8 4z"/>
<path d="M16666 10790 c-16 -21 -34 -36 -39 -33 -6 3 -7 2 -4 -4 4 -5 -5 -24
-20 -41 -27 -33 -46 -42 -37 -18 3 8 1 17 -4 20 -5 3 -8 -7 -6 -23 2 -21 -6
-39 -29 -67 -43 -51 -264 -274 -271 -274 -3 0 -23 -16 -43 -35 -54 -51 -29
-43 36 12 106 90 306 298 384 401 43 56 75 102 70 102 -4 0 -21 -18 -37 -40z"/>
<path d="M16480 10750 c12 -22 25 -26 35 -10 3 6 -1 7 -9 4 -11 -4 -16 0 -16
10 0 9 -5 16 -10 16 -7 0 -7 -6 0 -20z"/>
<path d="M15806 10735 c-17 -25 -16 -25 4 -13 11 7 20 18 20 25 0 19 -6 16
-24 -12z"/>
<path d="M16216 10743 c-6 -14 -5 -15 5 -6 7 7 10 15 7 18 -3 3 -9 -2 -12 -12z"/>
<path d="M16274 10708 c-16 -24 -44 -56 -63 -73 -91 -80 -97 -88 -39 -48 32
21 57 44 58 52 0 8 3 11 6 8 8 -8 40 27 61 66 23 45 9 42 -23 -5z"/>
<path d="M15925 10720 c2 -4 -7 -18 -20 -30 -14 -13 -25 -27 -25 -32 0 -4 -8
-17 -17 -28 -10 -10 -27 -30 -38 -42 -12 -13 -24 -30 -29 -38 -4 -8 15 10 43
40 28 30 53 63 57 73 3 9 9 17 14 17 4 0 15 11 23 23 12 19 13 24 2 24 -8 0
-12 -3 -10 -7z"/>
<path d="M15965 10710 c-3 -5 -1 -10 4 -10 6 0 11 5 11 10 0 6 -2 10 -4 10 -3
0 -8 -4 -11 -10z"/>
<path d="M15766 10684 c-5 -14 -4 -15 9 -4 17 14 19 20 6 20 -5 0 -12 -7 -15
-16z"/>
<path d="M16210 10690 c0 -5 5 -10 10 -10 6 0 10 5 10 10 0 6 -4 10 -10 10 -5
0 -10 -4 -10 -10z"/>
<path d="M15950 10680 c-8 -5 -12 -12 -9 -15 4 -3 12 1 19 10 14 17 11 19 -10
5z"/>
<path d="M16411 10683 c-1 -17 16 -25 25 -12 4 7 3 9 -4 5 -5 -3 -13 0 -15 6
-4 9 -6 10 -6 1z"/>
<path d="M16500 10679 c0 -5 5 -7 10 -4 6 3 10 8 10 11 0 2 -4 4 -10 4 -5 0
-10 -5 -10 -11z"/>
<path d="M16140 10649 c-30 -41 -21 -43 13 -2 16 18 24 33 19 33 -6 0 -20 -14
-32 -31z"/>
<path d="M15691 10609 c-24 -27 -41 -52 -37 -56 3 -4 13 3 21 15 9 11 21 27
28 34 35 39 49 58 41 57 -5 -1 -29 -23 -53 -50z"/>
<path d="M16195 10650 c-3 -5 -1 -10 4 -10 6 0 11 5 11 10 0 6 -2 10 -4 10 -3
0 -8 -4 -11 -10z"/>
<path d="M16515 10650 c-4 -6 -11 -7 -17 -4 -7 4 -8 2 -4 -5 6 -9 11 -9 22 0
14 11 18 19 10 19 -3 0 -8 -5 -11 -10z"/>
<path d="M15901 10607 c-23 -40 -66 -99 -103 -141 -10 -11 -18 -24 -18 -30 0
-15 89 86 90 102 0 6 4 12 9 12 5 0 14 13 21 29 6 16 20 38 31 50 13 14 15 21
7 21 -7 0 -24 -19 -37 -43z"/>
<path d="M16274 10625 c-10 -8 -14 -15 -8 -15 6 0 17 7 24 15 16 19 9 19 -16
0z"/>
<path d="M16463 10603 c0 -9 4 -10 14 -2 7 6 13 12 13 14 0 1 -6 2 -13 2 -8 0
-14 -6 -14 -14z"/>
<path d="M16092 10584 c-7 -8 -8 -14 -3 -14 10 0 25 19 20 25 -2 1 -10 -3 -17
-11z"/>
<path d="M16059 10543 c-13 -16 -12 -17 4 -4 16 13 21 21 13 21 -2 0 -10 -8
-17 -17z"/>
<path d="M16710 10545 c-7 -9 -11 -17 -9 -20 3 -2 10 5 17 15 14 24 10 26 -8
5z"/>
<path d="M15892 10515 c-17 -37 -14 -45 4 -12 9 16 14 31 11 33 -2 2 -9 -7
-15 -21z"/>
<path d="M15581 10490 c-19 -16 -32 -32 -30 -35 3 -2 21 11 39 30 41 42 37 45
-9 5z"/>
<path d="M16361 10484 c0 -11 3 -14 6 -6 3 7 2 16 -1 19 -3 4 -6 -2 -5 -13z"/>
<path d="M15831 10436 c-17 -24 -46 -61 -65 -81 -19 -20 -48 -53 -66 -73 -25
-29 -33 -33 -40 -22 -6 10 0 22 20 41 15 15 31 37 35 50 6 17 9 19 17 8 8 -11
9 -11 5 2 -3 9 -2 20 1 25 4 5 -49 -48 -118 -117 -69 -69 -160 -158 -203 -199
-84 -79 -102 -109 -21 -36 l49 45 24 -22 c20 -18 23 -19 18 -4 -4 9 -3 17 1
17 4 0 21 12 37 28 17 15 51 44 77 65 74 59 278 300 266 313 -3 3 -20 -15 -37
-40z m-201 -226 c-16 -16 -35 -29 -42 -28 -7 2 -12 -2 -11 -8 1 -7 -7 -20 -17
-29 -11 -10 -20 -15 -20 -11 0 4 -16 -9 -36 -29 -19 -19 -39 -33 -45 -30 -10
7 14 35 30 35 5 0 13 9 16 20 3 11 11 20 17 20 6 0 28 18 49 40 22 22 44 40
51 40 6 0 8 3 5 7 -4 3 -2 12 5 20 10 12 13 12 20 -1 6 -10 -1 -24 -22 -46z"/>
<path d="M15954 10423 c-27 -32 -57 -66 -68 -75 -10 -10 -15 -18 -10 -18 10 0
114 109 114 120 0 5 6 10 13 13 6 2 9 7 6 11 -3 4 -28 -19 -55 -51z"/>
<path d="M15495 10412 c-50 -45 -126 -112 -151 -132 -106 -85 -134 -110 -126
-110 6 0 14 5 18 11 3 6 15 9 25 6 11 -3 17 -1 14 4 -9 14 33 49 60 49 16 0
23 4 19 13 -3 8 14 29 39 50 60 49 150 137 146 142 -2 2 -22 -13 -44 -33z"/>
<path d="M15680 10429 c0 -5 5 -7 10 -4 6 3 10 8 10 11 0 2 -4 4 -10 4 -5 0
-10 -5 -10 -11z"/>
<path d="M15627 10385 c-20 -18 -46 -36 -57 -40 -11 -3 -20 -10 -20 -15 0 -5
-14 -23 -31 -40 -25 -24 -31 -27 -26 -11 3 12 -1 22 -10 25 -8 3 -12 10 -9 14
3 5 -1 9 -8 9 -7 0 -13 -6 -13 -13 0 -7 5 -12 11 -11 6 1 12 -10 14 -25 2 -17
-2 -28 -8 -28 -7 0 -9 7 -6 16 3 9 2 12 -5 9 -6 -4 -8 -13 -5 -21 3 -7 -5 -20
-16 -28 -28 -20 -36 -12 -15 12 16 18 14 32 -6 32 -5 0 -7 -7 -3 -15 3 -8 0
-16 -7 -17 -7 0 -16 -2 -22 -3 -5 -2 -16 -3 -23 -4 -7 0 -10 -5 -7 -11 3 -5
-2 -10 -12 -10 -15 0 -16 -2 -3 -10 13 -9 13 -10 0 -10 -12 -1 -12 -3 3 -14
22 -17 22 -30 0 -22 -10 4 -14 4 -10 0 4 -4 -10 -22 -30 -40 -41 -37 -42 -56
-1 -21 14 12 61 50 104 84 85 67 114 93 207 179 32 30 57 57 55 59 -2 2 -20
-11 -41 -30z m-232 -175 c3 -5 -2 -10 -12 -10 -14 0 -15 -2 -4 -9 9 -6 10 -11
2 -15 -19 -12 -32 3 -21 25 12 21 25 25 35 9z"/>
<path d="M15495 10370 c-3 -6 1 -7 9 -4 18 7 21 14 7 14 -6 0 -13 -4 -16 -10z"/>
<path d="M15546 10358 c3 -5 10 -6 15 -3 13 9 11 12 -6 12 -8 0 -12 -4 -9 -9z"/>
<path d="M15525 10340 c3 -5 8 -10 11 -10 2 0 4 5 4 10 0 6 -5 10 -11 10 -5 0
-7 -4 -4 -10z"/>
<path d="M15834 10302 c-10 -9 -47 -39 -81 -66 -35 -27 -63 -53 -63 -58 0 -5
17 4 38 20 55 45 138 121 131 122 -3 0 -14 -8 -25 -18z"/>
<path d="M15416 10288 c3 -5 10 -6 15 -3 13 9 11 12 -6 12 -8 0 -12 -4 -9 -9z"/>
<path d="M15381 10277 c-6 -8 -8 -17 -4 -20 11 -12 19 -7 20 13 2 24 -1 25
-16 7z"/>
<path d="M16080 10199 c-47 -38 -103 -82 -125 -97 -51 -34 -128 -94 -137 -107
-4 -5 -8 -6 -8 -2 0 5 -7 1 -16 -7 -12 -13 -18 -13 -29 -3 -7 6 -11 15 -9 19
2 4 0 9 -5 13 -10 6 -7 -27 4 -44 6 -11 -42 -51 -62 -51 -8 0 -12 -4 -9 -9 3
-4 -17 -23 -45 -41 -28 -18 -48 -34 -46 -36 6 -7 58 27 215 140 165 120 384
299 360 296 -2 -1 -41 -32 -88 -71z"/>
<path d="M15298 10203 c10 -4 10 -8 0 -21 -11 -13 -11 -14 2 -10 23 7 25 38 3
37 -11 0 -13 -3 -5 -6z"/>
<path d="M15600 10119 c-25 -16 -40 -29 -35 -30 6 0 1 -4 -10 -9 -16 -7 -14
-9 15 -9 26 -1 31 2 20 9 -13 9 -13 11 0 20 8 5 21 8 28 5 6 -2 12 2 12 10 0
7 8 15 18 17 9 2 13 6 7 9 -5 4 -30 -6 -55 -22z"/>
<path d="M15880 10110 c0 -5 -7 -10 -15 -10 -8 0 -15 -5 -15 -10 0 -6 13 -4
30 5 33 17 38 25 15 25 -8 0 -15 -4 -15 -10z"/>
<path d="M15810 10070 c0 -5 5 -12 11 -16 8 -4 7 -9 -2 -15 -10 -6 -8 -9 9 -9
27 0 28 10 2 33 -11 9 -20 13 -20 7z"/>
<path d="M15240 10059 c0 -5 5 -7 10 -4 6 3 10 8 10 11 0 2 -4 4 -10 4 -5 0
-10 -5 -10 -11z"/>
<path d="M15777 10064 c-3 -5 1 -15 9 -22 16 -14 18 -5 5 17 -5 7 -11 9 -14 5z"/>
<path d="M16226 10044 c-9 -24 -8 -25 14 -12 23 15 26 28 6 28 -8 0 -17 -7
-20 -16z"/>
<path d="M15157 10003 c-26 -19 -46 -38 -43 -40 5 -5 58 29 90 59 34 31 3 19
-47 -19z"/>
<path d="M16170 10030 c0 -5 6 -10 13 -10 6 0 -1 -12 -17 -26 -32 -29 -48 -24
-21 6 10 11 15 20 11 20 -6 0 -192 -120 -353 -227 -34 -23 18 -2 59 24 21 12
40 18 43 13 3 -5 -14 -19 -37 -31 -24 -12 -45 -25 -48 -29 -3 -3 -20 -13 -37
-21 -18 -8 -33 -17 -33 -21 0 -10 47 10 85 37 16 11 46 28 65 39 45 24 247
157 282 187 23 18 25 24 13 35 -16 17 -25 18 -25 4z m-68 -76 c-13 -9 -26 -13
-30 -9 -8 8 17 25 38 25 9 0 6 -6 -8 -16z m-59 -43 c-11 -9 -28 -21 -39 -27
-10 -5 -36 -20 -56 -33 -21 -12 -38 -19 -38 -14 0 5 20 19 45 33 25 14 45 28
45 32 0 5 7 8 15 8 9 0 18 7 21 15 4 8 10 12 16 9 5 -3 1 -13 -9 -23z"/>
<path d="M15770 10000 c0 -5 5 -10 11 -10 5 0 7 5 4 10 -3 6 -8 10 -11 10 -2
0 -4 -4 -4 -10z"/>
<path d="M15690 9976 c0 -2 7 -9 15 -16 13 -11 14 -10 9 4 -5 14 -24 23 -24
12z"/>
<path d="M15725 9970 c3 -5 8 -10 11 -10 2 0 4 5 4 10 0 6 -5 10 -11 10 -5 0
-7 -4 -4 -10z"/>
<path d="M14899 9942 c-20 -15 -62 -45 -93 -67 -58 -42 -66 -52 -41 -52 8 0
15 6 15 13 0 20 19 27 33 12 7 -7 12 -22 11 -34 -1 -12 5 -21 13 -21 9 0 10 4
4 10 -5 5 -7 15 -5 22 3 7 1 16 -5 20 -20 12 -12 22 54 70 36 27 65 50 65 52
0 8 -18 -1 -51 -25z"/>
<path d="M15290 9959 c0 -5 5 -7 10 -4 6 3 10 8 10 11 0 2 -4 4 -10 4 -5 0
-10 -5 -10 -11z"/>
<path d="M15044 9922 c-21 -15 -40 -30 -42 -34 -2 -5 -13 -8 -23 -8 -11 0 -17
-4 -14 -10 3 -5 -5 -15 -19 -22 -14 -6 -26 -15 -26 -20 0 -4 -6 -8 -14 -8 -7
0 -19 -7 -26 -15 -6 -8 -41 -30 -76 -50 -35 -20 -64 -41 -64 -46 0 -13 40 10
185 107 128 86 172 120 164 128 -3 3 -23 -7 -45 -22z"/>
<path d="M15250 9930 c-8 -5 -12 -12 -9 -15 4 -3 12 1 19 10 14 17 11 19 -10
5z"/>
<path d="M14943 9913 c-17 -6 -17 -23 0 -23 8 0 14 7 14 15 0 8 -1 15 -1 14
-1 0 -7 -3 -13 -6z"/>
<path d="M14904 9902 c4 -7 2 -12 -3 -12 -6 0 -10 -6 -8 -12 1 -8 -8 -13 -20
-13 -23 0 -31 -11 -17 -23 4 -4 4 -1 0 6 -4 6 -3 12 2 12 6 0 12 -7 16 -15 3
-8 10 -15 16 -15 6 0 8 5 5 10 -3 6 1 17 9 26 19 18 20 30 4 40 -7 4 -8 3 -4
-4z"/>
<path d="M15204 9896 c-19 -15 -19 -15 0 -12 11 2 22 8 24 14 5 16 0 15 -24
-2z"/>
<path d="M15095 9835 c-27 -14 -106 -52 -175 -85 -69 -33 -115 -60 -102 -60
12 0 22 5 22 10 0 6 7 10 15 10 9 0 48 16 88 36 135 68 149 74 157 69 4 -3 10
2 14 10 3 8 12 15 20 15 8 0 18 5 21 10 10 16 -6 12 -60 -15z"/>
<path d="M15567 9823 c-4 -3 -7 -11 -7 -17 0 -6 5 -5 12 2 6 6 9 14 7 17 -3 3
-9 2 -12 -2z"/>
<path d="M14706 9805 c-11 -8 -16 -15 -10 -15 5 0 18 7 28 15 11 8 16 15 10
15 -5 0 -18 -7 -28 -15z"/>
<path d="M14781 9796 c-9 -11 -9 -16 1 -22 7 -4 10 -4 6 1 -4 4 -3 14 3 22 6
7 9 13 6 13 -2 0 -10 -6 -16 -14z"/>
<path d="M15487 9768 c-32 -22 -56 -42 -53 -45 7 -7 116 67 116 79 0 10 5 13
-63 -34z"/>
<path d="M15078 9783 c7 -3 16 -2 19 1 4 3 -2 6 -13 5 -11 0 -14 -3 -6 -6z"/>
<path d="M14629 9760 l-24 -20 28 11 c15 7 27 16 27 21 0 12 -5 10 -31 -12z"/>
<path d="M14566 9725 c-11 -8 -15 -15 -10 -15 6 0 19 7 30 15 10 8 15 14 9 14
-5 0 -19 -6 -29 -14z"/>
<path d="M15695 9730 c-3 -5 -2 -10 4 -10 5 0 13 5 16 10 3 6 2 10 -4 10 -5 0
-13 -4 -16 -10z"/>
<path d="M15405 9710 c-3 -5 -1 -10 4 -10 6 0 11 5 11 10 0 6 -2 10 -4 10 -3
0 -8 -4 -11 -10z"/>
<path d="M15640 9700 c-14 -11 -20 -20 -15 -20 6 0 21 9 35 20 14 11 21 20 15
20 -5 0 -21 -9 -35 -20z"/>
<path d="M14525 9700 c-3 -5 -1 -10 4 -10 6 0 11 5 11 10 0 6 -2 10 -4 10 -3
0 -8 -4 -11 -10z"/>
<path d="M15700 9704 c0 -6 -27 -22 -60 -37 -32 -15 -62 -32 -65 -37 -8 -13
18 -3 75 28 54 29 66 39 57 49 -4 3 -7 2 -7 -3z"/>
<path d="M15365 9680 c-3 -5 -2 -10 4 -10 5 0 13 5 16 10 3 6 2 10 -4 10 -5 0
-13 -4 -16 -10z"/>
<path d="M14480 9670 c-9 -6 -10 -10 -3 -10 6 0 15 5 18 10 8 12 4 12 -15 0z"/>
<path d="M14763 9670 c-13 -5 -23 -11 -23 -13 0 -8 50 5 56 14 6 11 -4 11 -33
-1z"/>
<path d="M15585 9670 c-3 -5 -2 -10 4 -10 5 0 13 5 16 10 3 6 2 10 -4 10 -5 0
-13 -4 -16 -10z"/>
<path d="M15315 9650 c-3 -5 -2 -10 4 -10 5 0 13 5 16 10 3 6 2 10 -4 10 -5 0
-13 -4 -16 -10z"/>
<path d="M15538 9644 c-38 -20 -36 -28 2 -9 17 9 30 18 30 20 0 7 -1 6 -32
-11z"/>
<path d="M14435 9640 c-3 -5 -1 -10 4 -10 6 0 11 5 11 10 0 6 -2 10 -4 10 -3
0 -8 -4 -11 -10z"/>
<path d="M15261 9620 c-13 -11 -29 -20 -37 -20 -8 0 -14 -5 -14 -10 0 -6 -16
-18 -35 -27 -19 -9 -35 -21 -35 -26 0 -11 108 53 144 85 27 25 7 22 -23 -2z"/>
<path d="M15524 9605 c-10 -8 -14 -15 -8 -15 5 0 19 7 30 15 10 8 14 15 8 15
-5 0 -19 -7 -30 -15z"/>
<path d="M14358 9592 c-30 -18 -38 -35 -13 -26 8 4 15 10 15 15 0 5 6 9 14 9
8 0 18 5 21 10 9 15 -6 12 -37 -8z"/>
<path d="M15390 9571 c-41 -20 -126 -60 -189 -89 -62 -29 -111 -55 -109 -58 7
-7 132 47 258 112 135 69 124 63 119 68 -2 2 -38 -12 -79 -33z"/>
<path d="M15475 9580 c-3 -5 -1 -10 4 -10 6 0 11 5 11 10 0 6 -2 10 -4 10 -3
0 -8 -4 -11 -10z"/>
<path d="M14265 9539 c-60 -38 -60 -38 -53 -44 7 -8 96 47 102 63 7 16 9 17
-49 -19z"/>
<path d="M15375 9534 c-58 -34 -162 -85 -254 -125 -24 -11 -41 -22 -38 -25 6
-6 225 95 299 137 25 15 48 25 51 23 2 -2 10 2 17 11 21 26 -9 17 -75 -21z"/>
<path d="M15010 9550 c-13 -8 -12 -10 3 -10 9 0 17 5 17 10 0 12 -1 12 -20 0z"/>
<path d="M14180 9530 c0 -5 7 -7 15 -4 8 4 15 8 15 10 0 2 -7 4 -15 4 -8 0
-15 -4 -15 -10z"/>
<path d="M14144 9515 c-10 -8 -14 -14 -9 -15 15 0 40 18 34 24 -3 3 -14 -1
-25 -9z"/>
<path d="M14936 9515 c-11 -8 -15 -15 -9 -15 6 0 16 7 23 15 16 19 11 19 -14
0z"/>
<path d="M15083 9507 c-24 -11 -43 -25 -43 -30 0 -8 62 25 85 45 14 12 5 9
-42 -15z"/>
<path d="M14880 9490 c-9 -6 -10 -10 -3 -10 6 0 15 5 18 10 8 12 4 12 -15 0z"/>
<path d="M14180 9479 c0 -5 -5 -7 -12 -3 -7 4 -8 3 -4 -4 4 -6 13 -9 21 -5 17
6 20 23 5 23 -5 0 -10 -5 -10 -11z"/>
<path d="M14830 9465 c-14 -8 -41 -21 -60 -29 -19 -8 -53 -22 -75 -32 -22 -9
-44 -18 -50 -19 -5 -2 -17 -4 -25 -6 -8 -2 -21 -10 -28 -17 -8 -7 -27 -16 -43
-19 -16 -3 -34 -12 -40 -19 -6 -8 -15 -11 -20 -8 -5 3 -9 1 -9 -4 0 -9 -53
-36 -65 -33 -6 2 -35 -25 -35 -33 0 -2 35 13 78 35 42 22 104 52 137 66 152
64 253 112 261 124 7 12 4 11 -26 -6z"/>
<path d="M14955 9470 c-3 -5 -1 -10 4 -10 6 0 11 5 11 10 0 6 -2 10 -4 10 -3
0 -8 -4 -11 -10z"/>
<path d="M14120 9450 c0 -5 5 -10 10 -10 6 0 10 5 10 10 0 6 -4 10 -10 10 -5
0 -10 -4 -10 -10z"/>
<path d="M14985 9450 c-3 -6 1 -7 9 -4 18 7 21 14 7 14 -6 0 -13 -4 -16 -10z"/>
<path d="M14060 9420 c-8 -5 -12 -12 -9 -15 4 -3 12 1 19 10 14 17 11 19 -10
5z"/>
<path d="M14925 9420 c3 -5 8 -10 11 -10 2 0 4 5 4 10 0 6 -5 10 -11 10 -5 0
-7 -4 -4 -10z"/>
<path d="M15006 9390 c-32 -16 -68 -31 -80 -34 -11 -3 -17 -8 -14 -11 4 -4 44
11 90 33 45 22 79 40 73 41 -5 0 -37 -13 -69 -29z"/>
<path d="M14020 9400 c-8 -5 -11 -12 -7 -16 4 -4 13 -2 19 4 15 15 7 24 -12
12z"/>
<path d="M14595 9400 c-3 -5 -1 -10 4 -10 6 0 11 5 11 10 0 6 -2 10 -4 10 -3
0 -8 -4 -11 -10z"/>
<path d="M13708 9393 c7 -3 16 -2 19 1 4 3 -2 6 -13 5 -11 0 -14 -3 -6 -6z"/>
<path d="M14790 9390 c0 -5 7 -7 15 -4 8 4 15 8 15 10 0 2 -7 4 -15 4 -8 0
-15 -4 -15 -10z"/>
<path d="M14856 9391 c5 -6 -57 -35 -69 -32 -5 1 -6 -3 -2 -9 5 -9 -6 -14 -26
-12 -3 1 -21 -12 -40 -28 l-34 -30 30 11 c16 5 32 13 35 17 3 4 31 21 63 37
67 34 85 51 57 51 -11 0 -17 -2 -14 -5z"/>
<path d="M13655 9380 c4 -6 11 -8 16 -5 14 9 11 15 -7 15 -8 0 -12 -5 -9 -10z"/>
<path d="M14536 9377 c3 -10 9 -15 12 -12 3 3 0 11 -7 18 -10 9 -11 8 -5 -6z"/>
<path d="M15023 9368 c-24 -12 -41 -23 -40 -25 6 -6 87 30 87 39 0 11 2 11
-47 -14z"/>
<path d="M13553 9362 c-35 -8 -63 -20 -63 -25 0 -5 6 -7 13 -4 6 2 36 10 65
17 28 8 52 17 52 22 0 4 -1 7 -2 7 -2 -1 -31 -8 -65 -17z"/>
<path d="M13950 9355 c-14 -8 -20 -14 -15 -14 6 0 21 6 35 14 14 8 21 14 15
14 -5 0 -21 -6 -35 -14z"/>
<path d="M13650 9341 c0 -6 4 -13 10 -16 6 -3 7 1 4 9 -7 18 -14 21 -14 7z"/>
<path d="M14695 9340 c-8 -13 5 -13 25 0 13 8 13 10 -2 10 -9 0 -20 -4 -23
-10z"/>
<path d="M13425 9333 c-16 -3 -34 -9 -40 -14 -7 -7 2 -8 25 -4 19 4 40 8 47 9
7 1 16 5 19 9 8 7 1 7 -51 0z"/>
<path d="M13595 9330 c-19 -8 -19 -9 2 -9 12 -1 25 4 28 9 7 12 -2 12 -30 0z"/>
<path d="M14445 9329 c-4 -6 -5 -12 -2 -15 2 -3 7 2 10 11 7 17 1 20 -8 4z"/>
<path d="M14945 9330 c-3 -5 -2 -10 4 -10 5 0 13 5 16 10 3 6 2 10 -4 10 -5 0
-13 -4 -16 -10z"/>
<path d="M14655 9320 c-3 -5 -2 -10 4 -10 5 0 13 5 16 10 3 6 2 10 -4 10 -5 0
-13 -4 -16 -10z"/>
<path d="M13355 9310 c-3 -5 -1 -10 4 -10 6 0 11 5 11 10 0 6 -2 10 -4 10 -3
0 -8 -4 -11 -10z"/>
<path d="M13505 9310 l-20 -9 20 0 c11 0 27 4 35 9 13 9 13 10 0 9 -8 0 -24
-4 -35 -9z"/>
<path d="M13706 9306 c6 -16 34 -30 34 -18 0 10 -22 32 -32 32 -4 0 -5 -6 -2
-14z"/>
<path d="M13680 9300 c0 -5 5 -10 11 -10 5 0 7 5 4 10 -3 6 -8 10 -11 10 -2 0
-4 -4 -4 -10z"/>
<path d="M13798 9293 c-27 -9 -48 -19 -48 -24 0 -10 17 -6 70 19 54 25 43 27
-22 5z"/>
<path d="M14620 9300 c-9 -6 -10 -10 -3 -10 6 0 15 5 18 10 8 12 4 12 -15 0z"/>
<path d="M14790 9300 c-8 -5 -12 -11 -9 -14 3 -3 14 1 25 9 21 16 8 20 -16 5z"/>
<path d="M13440 9291 c0 -5 9 -7 20 -4 11 3 20 7 20 9 0 2 -9 4 -20 4 -11 0
-20 -4 -20 -9z"/>
<path d="M13383 9280 c-13 -5 -23 -11 -23 -14 0 -6 60 11 68 19 8 8 -20 5 -45
-5z"/>
<path d="M14580 9280 c-9 -6 -10 -10 -3 -10 6 0 15 5 18 10 8 12 4 12 -15 0z"/>
<path d="M14750 9280 c-13 -8 -12 -10 3 -10 9 0 17 5 17 10 0 12 -1 12 -20 0z"/>
<path d="M13287 9274 c-3 -6 12 -28 33 -49 22 -22 40 -35 40 -31 0 5 -13 21
-29 36 -16 16 -31 34 -33 41 -3 8 -7 9 -11 3z"/>
<path d="M14800 9270 c-13 -8 -13 -10 2 -10 9 0 20 5 23 10 8 13 -5 13 -25 0z"/>
<path d="M14540 9260 c-13 -8 -12 -10 3 -10 9 0 17 5 17 10 0 12 -1 12 -20 0z"/>
<path d="M13715 9249 c-11 -17 1 -21 15 -4 8 9 8 15 2 15 -6 0 -14 -5 -17 -11z"/>
<path d="M14723 9246 c-23 -6 -48 -18 -55 -25 -11 -12 -10 -13 7 -6 11 4 36
12 55 17 19 5 39 14 45 19 11 11 4 10 -52 -5z"/>
<path d="M14500 9240 c-9 -6 -10 -10 -3 -10 6 0 15 5 18 10 8 12 4 12 -15 0z"/>
<path d="M13535 9185 c-106 -27 -100 -32 11 -9 76 16 130 34 94 33 -8 -1 -55
-11 -105 -24z"/>
<path d="M14620 9200 c0 -5 7 -7 15 -4 8 4 15 8 15 10 0 2 -7 4 -15 4 -8 0
-15 -4 -15 -10z"/>
<path d="M13685 9161 c-3 -5 -2 -12 3 -15 5 -3 9 1 9 9 0 17 -3 19 -12 6z"/>
<path d="M13365 9130 c-11 -4 -33 -13 -49 -19 -16 -6 -27 -13 -25 -16 7 -6 78
20 91 33 14 14 11 14 -17 2z"/>
<path d="M14490 9123 c0 -6 8 -17 18 -24 16 -13 16 -13 2 6 -8 11 -16 22 -17
24 -2 2 -3 0 -3 -6z"/>
<path d="M13260 9080 c-9 -6 -10 -10 -3 -10 6 0 15 5 18 10 8 12 4 12 -15 0z"/>
<path d="M14536 9067 c3 -10 9 -15 12 -12 3 3 0 11 -7 18 -10 9 -11 8 -5 -6z"/>
<path d="M13217 9064 c-4 -4 -7 -14 -7 -23 0 -11 3 -12 11 -4 6 6 10 16 7 23
-2 6 -7 8 -11 4z"/>
<path d="M14390 9028 c19 -20 24 -33 21 -50 0 -5 6 -8 15 -8 8 0 37 -23 65
-52 27 -28 49 -47 49 -41 0 11 -23 36 -71 78 -19 17 -45 45 -57 63 -13 17 -28
32 -33 32 -5 0 -1 -10 11 -22z"/>
<path d="M13161 8963 c1 -43 4 -89 8 -103 5 -15 8 17 8 78 0 56 -4 102 -9 102
-4 0 -8 -35 -7 -77z"/>
<path d="M14586 9007 c3 -10 9 -15 12 -12 3 3 0 11 -7 18 -10 9 -11 8 -5 -6z"/>
<path d="M13200 8965 c0 -19 4 -35 8 -35 4 0 6 16 4 35 -2 19 -6 35 -8 35 -2
0 -4 -16 -4 -35z"/>
<path d="M14510 8984 c0 -11 62 -84 71 -84 5 0 -5 16 -23 36 -18 20 -32 40
-30 45 1 5 -2 9 -8 9 -5 0 -10 -3 -10 -6z"/>
<path d="M13940 8957 c0 -14 39 -41 48 -33 3 3 0 6 -6 6 -6 0 -14 9 -17 20 -7
22 -25 27 -25 7z"/>
<path d="M13865 8945 c-23 -10 -25 -13 -10 -13 28 -1 61 13 49 20 -5 3 -22 0
-39 -7z"/>
<path d="M14641 8943 c8 -10 21 -26 29 -37 8 -11 35 -40 58 -65 26 -27 16 -11
-23 37 -37 45 -69 82 -72 82 -3 0 1 -8 8 -17z"/>
<path d="M13830 8881 c0 -4 12 -21 28 -37 88 -94 137 -161 102 -139 -5 3 -10
1 -10 -5 0 -6 8 -9 18 -6 12 4 40 -16 93 -67 119 -113 141 -129 53 -37 -113
118 -160 168 -226 239 -32 33 -58 57 -58 52z"/>
<path d="M14011 8853 c13 -21 34 -49 46 -63 30 -33 161 -199 180 -227 9 -13
20 -23 27 -23 7 0 8 3 1 8 -6 4 -22 23 -35 42 -13 19 -27 37 -31 40 -3 3 -13
19 -22 35 -8 17 -30 46 -49 66 -52 56 -102 119 -112 140 -5 10 -13 19 -18 19
-5 0 1 -17 13 -37z"/>
<path d="M14596 8877 c3 -10 9 -15 12 -12 3 3 0 11 -7 18 -10 9 -11 8 -5 -6z"/>
<path d="M13579 8865 c-5 -5 -115 -36 -139 -39 -9 -1 -21 -5 -28 -10 -6 -4
-12 -5 -12 -1 0 3 -15 -1 -34 -9 -19 -8 -37 -12 -39 -9 -3 2 -8 0 -12 -6 -9
-15 -6 -15 139 25 133 37 143 40 134 49 -2 3 -7 3 -9 0z"/>
<path d="M13639 8853 c11 -21 240 -274 350 -387 42 -43 81 -83 86 -90 18 -20
90 -109 97 -120 4 -6 10 -7 14 -4 4 4 -8 23 -25 43 -17 20 -28 41 -25 47 4 7
2 8 -4 4 -6 -4 -24 8 -39 25 -15 18 -46 51 -68 74 -93 99 -121 131 -128 148
-3 9 -14 17 -23 17 -12 0 -15 6 -10 26 6 21 4 25 -7 21 -20 -8 -138 107 -197
192 -17 25 -35 28 -21 4z"/>
<path d="M14550 8867 c0 -2 14 -20 31 -38 l31 -34 -21 32 c-20 30 -41 50 -41
40z"/>
<path d="M13330 8853 c0 -12 14 -28 25 -30 6 -1 21 6 34 16 17 13 19 18 7 18
-9 0 -16 -4 -16 -9 0 -4 -9 -8 -21 -8 -11 0 -17 5 -14 10 3 6 1 10 -4 10 -6 0
-11 -3 -11 -7z"/>
<path d="M13171 8810 c-1 -14 -4 -33 -6 -44 -2 -12 0 -15 6 -9 6 6 9 26 6 44
-3 26 -4 28 -6 9z"/>
<path d="M14630 8826 c0 -2 7 -9 15 -16 13 -11 14 -10 9 4 -5 14 -24 23 -24
12z"/>
<path d="M14812 8739 c24 -29 73 -83 111 -121 37 -38 67 -71 67 -73 0 -2 30
-35 68 -72 147 -151 292 -306 292 -313 0 -4 10 -10 21 -13 14 -4 -9 26 -62 81
-46 48 -129 134 -184 192 -190 197 -329 348 -333 361 -2 5 -8 9 -13 9 -6 0 9
-23 33 -51z"/>
<path d="M13230 8764 l-45 -12 35 -1 c19 0 46 6 60 14 30 17 11 17 -50 -1z"/>
<path d="M13863 8735 c0 -8 4 -12 9 -9 5 3 6 10 3 15 -9 13 -12 11 -12 -6z"/>
<path d="M14170 8729 c0 -5 -5 -7 -12 -3 -7 4 -8 3 -4 -4 10 -16 23 -15 30 3
3 8 1 15 -4 15 -6 0 -10 -5 -10 -11z"/>
<path d="M14705 8731 c31 -52 105 -139 105 -124 0 10 -26 45 -57 78 -31 33
-53 54 -48 46z"/>
<path d="M14193 8695 c0 -8 4 -12 9 -9 5 3 6 10 3 15 -9 13 -12 11 -12 -6z"/>
<path d="M14680 8693 c0 -6 14 -25 30 -42 17 -17 31 -34 32 -38 2 -18 24 -43
36 -43 8 0 -3 21 -25 47 -57 72 -73 88 -73 76z"/>
<path d="M13990 8625 c-7 -9 -8 -15 -2 -15 5 0 12 7 16 15 3 8 4 15 2 15 -2 0
-9 -7 -16 -15z"/>
<path d="M14899 8607 c6 -8 7 -18 3 -22 -4 -5 -1 -5 6 -1 10 6 10 11 1 22 -6
8 -14 14 -16 14 -3 0 0 -6 6 -13z"/>
<path d="M14590 8606 c0 -2 7 -7 16 -10 8 -3 12 -2 9 4 -6 10 -25 14 -25 6z"/>
<path d="M14670 8580 c0 -22 617 -666 628 -655 2 2 -40 48 -94 102 -232 232
-427 441 -494 529 -25 34 -40 42 -40 24z"/>
<path d="M14625 8564 c11 -8 20 -18 20 -22 0 -9 80 -92 89 -92 14 0 -100 128
-114 129 -11 0 -10 -4 5 -15z"/>
<path d="M14271 8527 c-1 -8 31 -58 54 -84 5 -6 24 -29 40 -50 51 -64 97 -113
106 -113 5 0 1 8 -8 18 -31 32 -63 72 -63 78 0 3 -14 19 -31 35 -17 16 -28 29
-25 29 4 0 -3 10 -16 23 -13 13 -31 34 -40 47 -9 14 -17 21 -17 17z"/>
<path d="M14610 8498 c0 -4 4 -8 9 -8 6 0 12 4 15 8 3 5 -1 9 -9 9 -8 0 -15
-4 -15 -9z"/>
<path d="M12150 8458 c0 -18 4 -71 10 -118 12 -109 35 -402 60 -756 19 -277
19 -279 0 -293 -22 -15 -27 -62 -11 -104 17 -45 47 -49 356 -45 l287 3 24 28
c29 34 30 64 4 122 -18 40 -19 53 -10 167 5 67 14 191 20 273 6 83 19 247 30
365 10 118 22 254 26 303 l6 87 -401 0 -401 0 0 -32z m271 -118 c18 -10 19
-26 19 -498 0 -496 -1 -512 -36 -512 -24 0 -26 13 -49 380 -8 116 -22 280 -30
355 -2 22 -7 76 -10 120 -3 44 -8 93 -11 108 -3 15 0 34 6 42 14 17 82 20 111
5z"/>
<path d="M12401 7424 c0 -11 3 -14 6 -6 3 7 2 16 -1 19 -3 4 -6 -2 -5 -13z"/>
<path d="M14255 8442 c23 -26 27 -35 16 -41 -15 -10 -7 -31 12 -31 8 0 8 3 -2
9 -8 5 -9 11 -3 15 6 3 27 -11 46 -31 20 -21 36 -33 36 -26 0 13 -27 41 -96
103 l-39 35 30 -33z"/>
<path d="M14740 8435 c0 -3 8 -13 18 -23 9 -10 28 -31 42 -48 14 -16 32 -34
39 -39 8 -4 -8 19 -35 53 -44 54 -64 72 -64 57z"/>
<path d="M14293 8345 c0 -8 9 -15 20 -15 11 0 18 1 16 3 -2 1 -11 8 -20 15
-13 9 -16 9 -16 -3z"/>
<path d="M14376 8303 c3 -16 20 -41 37 -57 18 -16 84 -77 147 -136 63 -59 130
-120 148 -135 58 -49 95 -88 197 -214 11 -14 38 -45 60 -70 22 -26 69 -80 105
-121 36 -41 84 -95 107 -120 24 -25 43 -48 43 -51 0 -4 16 -19 35 -33 44 -34
44 -29 0 20 -85 94 -152 167 -181 198 -17 18 -33 38 -35 44 -2 6 -31 39 -64
74 -68 70 -125 141 -125 155 0 4 -9 14 -20 21 -12 7 -18 17 -15 22 3 6 2 10
-3 10 -5 0 -27 17 -49 38 -22 20 -51 44 -63 52 -36 23 -239 223 -235 231 3 3
-6 15 -18 27 -21 20 -25 22 -47 22 -5 0 -10 5 -10 11 0 5 6 7 13 3 6 -4 3 2
-7 14 -25 28 -28 28 -20 -5z"/>
<path d="M14260 8305 c0 -7 -8 -19 -17 -24 -10 -6 -13 -11 -6 -11 6 0 15 5 18
10 4 6 10 8 15 5 4 -3 6 4 3 15 -6 23 -13 26 -13 5z"/>
<path d="M14178 8303 c7 -3 16 -2 19 1 4 3 -2 6 -13 5 -11 0 -14 -3 -6 -6z"/>
<path d="M14210 8300 c0 -5 5 -10 11 -10 5 0 7 5 4 10 -3 6 -8 10 -11 10 -2 0
-4 -4 -4 -10z"/>
<path d="M14850 8308 c0 -4 36 -45 80 -90 56 -58 79 -89 76 -101 -3 -14 -1
-16 8 -7 10 8 26 -4 66 -47 29 -32 63 -64 74 -72 28 -19 -10 23 -171 188 -73
75 -133 133 -133 129z"/>
<path d="M14197 8275 c3 -8 9 -12 14 -9 12 7 11 11 -5 17 -10 4 -13 1 -9 -8z"/>
<path d="M14330 8280 c0 -5 5 -10 11 -10 5 0 7 5 4 10 -3 6 -8 10 -11 10 -2 0
-4 -4 -4 -10z"/>
<path d="M14360 8252 c0 -7 -4 -11 -9 -8 -5 3 -12 -1 -15 -9 -4 -13 -2 -13 13
-5 21 11 49 -11 100 -78 13 -18 28 -32 32 -32 10 0 -15 32 -78 100 -24 25 -43
39 -43 32z"/>
<path d="M14190 8241 c0 -6 4 -13 10 -16 9 -5 120 -131 380 -430 52 -60 110
-127 128 -148 18 -21 32 -32 32 -25 0 7 -21 35 -45 61 -25 27 -43 53 -39 58 3
5 1 8 -4 7 -10 -3 -32 19 -80 81 -15 18 -45 53 -67 76 -22 23 -59 64 -82 91
-36 43 -64 74 -143 161 -11 12 -20 26 -20 31 0 10 -53 62 -63 62 -4 0 -7 -4
-7 -9z"/>
<path d="M15215 8230 c4 -6 11 -8 16 -5 14 9 11 15 -7 15 -8 0 -12 -5 -9 -10z"/>
<path d="M14960 8130 c-9 -6 -10 -10 -3 -10 6 0 15 5 18 10 8 12 4 12 -15 0z"/>
<path d="M15394 8118 c-4 -7 -4 -10 1 -6 4 4 14 0 21 -10 7 -9 14 -12 14 -6 0
6 -6 17 -14 23 -11 9 -16 9 -22 -1z"/>
<path d="M14506 8085 c9 -14 21 -25 27 -25 6 0 0 11 -13 25 -13 14 -25 25 -27
25 -2 0 4 -11 13 -25z"/>
<path d="M15440 8087 c0 -9 18 -32 44 -55 10 -9 39 -36 64 -60 45 -43 64 -53
33 -17 -35 40 -141 139 -141 132z"/>
<path d="M14551 8035 c13 -18 120 -143 159 -186 8 -9 28 -30 43 -48 16 -17 33
-31 39 -31 6 0 -23 37 -63 82 -92 102 -197 210 -178 183z"/>
<path d="M14775 8019 c-4 -6 -5 -12 -2 -15 2 -3 7 2 10 11 7 17 1 20 -8 4z"/>
<path d="M14740 8000 c-13 -8 -12 -10 3 -10 9 0 17 5 17 10 0 12 -1 12 -20 0z"/>
<path d="M15180 7960 c0 -5 4 -10 8 -10 5 0 47 -37 94 -82 73 -70 240 -226
281 -263 21 -19 105 -75 113 -75 4 0 -22 22 -57 49 -35 27 -120 102 -190 167
-166 157 -239 224 -244 224 -3 0 -5 -4 -5 -10z"/>
<path d="M14533 7921 c-1 -13 3 -18 12 -15 8 3 11 12 8 20 -7 20 -18 17 -20
-5z"/>
<path d="M14610 7921 c0 -5 5 -13 10 -16 6 -3 10 -2 10 4 0 5 -4 13 -10 16 -5
3 -10 2 -10 -4z"/>
<path d="M15515 7920 c3 -5 8 -10 11 -10 2 0 4 5 4 10 0 6 -5 10 -11 10 -5 0
-7 -4 -4 -10z"/>
<path d="M15310 7917 c0 -11 370 -357 382 -357 7 0 -5 16 -27 34 -22 19 -79
72 -126 117 -146 142 -229 217 -229 206z"/>
<path d="M15540 7903 c0 -6 37 -44 83 -84 45 -40 118 -107 162 -148 43 -42 70
-65 60 -51 -11 14 -56 60 -100 103 -44 42 -96 93 -115 112 -20 19 -39 35 -44
35 -5 0 -17 10 -27 22 -11 11 -19 16 -19 11z"/>
<path d="M14575 7890 c3 -5 11 -10 16 -10 6 0 7 5 4 10 -3 6 -11 10 -16 10 -6
0 -7 -4 -4 -10z"/>
<path d="M15620 7895 c0 -2 10 -10 23 -16 20 -11 21 -11 8 4 -13 16 -31 23
-31 12z"/>
<path d="M14620 7869 c7 -11 14 -19 16 -16 7 7 -7 37 -17 37 -6 0 -5 -9 1 -21z"/>
<path d="M15500 7880 c0 -5 5 -10 10 -10 6 0 10 5 10 10 0 6 -4 10 -10 10 -5
0 -10 -4 -10 -10z"/>
<path d="M14652 7840 c0 -21 4 -30 15 -30 12 0 13 3 4 14 -8 10 -9 16 -1 21 6
3 8 11 5 16 -12 18 -22 9 -23 -21z"/>
<path d="M15526 7862 c-3 -5 1 -15 9 -22 16 -13 21 -35 7 -26 -5 3 -9 -1 -9
-8 0 -7 6 -13 13 -13 7 0 11 4 8 9 -9 14 17 9 34 -8 9 -8 45 -43 80 -77 34
-34 62 -57 62 -51 0 16 -198 206 -204 196z"/>
<path d="M15690 7835 c21 -30 60 -67 60 -57 0 4 -17 24 -37 43 -20 18 -31 25
-23 14z"/>
<path d="M14622 7815 c-11 -12 -10 -15 3 -15 8 0 15 7 15 15 0 18 -2 18 -18 0z"/>
<path d="M15296 7795 c4 -8 10 -15 15 -15 5 0 9 7 9 15 0 8 -7 15 -15 15 -9 0
-12 -6 -9 -15z"/>
<path d="M15480 7789 c0 -5 5 -7 10 -4 6 3 10 8 10 11 0 2 -4 4 -10 4 -5 0
-10 -5 -10 -11z"/>
<path d="M15768 7759 c6 -9 9 -19 5 -22 -3 -4 1 -7 11 -7 9 0 14 -5 11 -10 -4
-6 -1 -9 7 -8 7 2 12 -3 11 -9 -2 -7 4 -13 13 -13 8 0 12 -5 9 -10 -4 -6 -1
-9 7 -8 7 2 12 -3 11 -9 -2 -7 4 -13 12 -13 8 0 12 -6 9 -13 -2 -7 12 -28 33
-47 l37 -35 -27 33 c-47 59 -29 56 31 -5 32 -32 77 -74 101 -93 24 -19 59 -50
79 -67 20 -18 39 -33 44 -33 4 0 -23 28 -60 63 -63 57 -219 199 -247 222 -6 6
-33 30 -60 55 -27 25 -44 38 -37 29z"/>
<path d="M14810 7746 c0 -4 7 -14 15 -22 8 -9 15 -11 15 -6 0 5 -7 15 -15 22
-8 7 -15 9 -15 6z"/>
<path d="M14850 7707 c0 -2 18 -24 40 -48 22 -24 40 -50 40 -56 0 -7 7 -13 15
-13 8 0 15 -4 15 -10 0 -5 18 -28 40 -50 22 -22 40 -45 40 -50 0 -6 5 -10 11
-10 6 0 8 -7 5 -16 -3 -9 -2 -12 4 -9 6 4 27 -12 48 -35 57 -64 151 -160 157
-160 12 0 2 13 -56 72 -34 35 -121 131 -194 213 -124 142 -165 184 -165 172z"/>
<path d="M15466 7637 c3 -10 9 -15 12 -12 3 3 0 11 -7 18 -10 9 -11 8 -5 -6z"/>
<path d="M15090 7619 c0 -6 -5 -7 -12 -3 -6 4 -8 3 -5 -4 4 -5 16 -8 27 -5 24
6 25 9 5 17 -8 3 -15 1 -15 -5z"/>
<path d="M15130 7615 c0 -8 2 -15 4 -15 2 0 6 7 10 15 3 8 1 15 -4 15 -6 0
-10 -7 -10 -15z"/>
<path d="M14750 7602 c0 -12 19 -26 26 -19 2 2 -2 10 -11 17 -9 8 -15 8 -15 2z"/>
<path d="M14790 7550 c12 -22 94 -115 194 -217 48 -50 73 -69 78 -60 11 18 10
29 -3 21 -7 -4 -42 25 -85 70 -75 78 -84 89 -61 81 6 -3 17 3 24 13 9 15 8 19
-3 19 -8 0 -14 -4 -14 -8 0 -3 -9 -9 -20 -12 -11 -3 -20 -2 -20 3 0 4 -18 26
-40 49 -22 22 -40 46 -40 51 0 6 -5 10 -10 10 -7 0 -7 -6 0 -20z"/>
<path d="M14944 7562 c3 -5 1 -12 -5 -14 -7 -2 -7 -8 3 -15 11 -10 14 -8 15 7
1 11 -3 23 -9 26 -6 4 -8 2 -4 -4z"/>
<path d="M15825 7550 c3 -5 8 -10 11 -10 2 0 4 5 4 10 0 6 -5 10 -11 10 -5 0
-7 -4 -4 -10z"/>
<path d="M15931 7547 c2 -2 29 -26 60 -53 157 -139 193 -169 203 -173 13 -5
-39 46 -144 139 -40 36 -78 71 -85 78 -8 6 -19 12 -26 12 -7 0 -10 -2 -8 -3z"/>
<path d="M15850 7531 c0 -14 49 -61 63 -61 5 0 5 -4 2 -10 -3 -5 1 -10 9 -10
8 0 18 -9 21 -21 4 -11 9 -18 12 -15 3 3 28 -17 56 -44 29 -28 55 -50 60 -50
5 0 -22 30 -60 66 -37 36 -89 87 -115 112 -27 26 -48 40 -48 33z"/>
<path d="M15815 7500 c4 -6 11 -8 16 -5 14 9 11 15 -7 15 -8 0 -12 -5 -9 -10z"/>
<path d="M15903 7415 c0 -7 6 -11 14 -8 7 3 13 6 13 8 0 2 -6 5 -13 8 -8 3
-14 -1 -14 -8z"/>
<path d="M16200 7360 c0 -5 5 -10 11 -10 5 0 7 5 4 10 -3 6 -8 10 -11 10 -2 0
-4 -4 -4 -10z"/>
<path d="M16230 7334 c0 -5 9 -17 20 -27 11 -9 20 -13 20 -8 0 4 -9 16 -20 26
-11 10 -20 14 -20 9z"/>
<path d="M15300 7324 c0 -11 29 -34 34 -26 2 4 -4 13 -15 20 -10 7 -19 10 -19
6z"/>
<path d="M16210 7306 c0 -2 7 -9 15 -16 13 -11 14 -10 9 4 -5 14 -24 23 -24
12z"/>
<path d="M15370 7290 c0 -5 5 -10 11 -10 5 0 7 5 4 10 -3 6 -8 10 -11 10 -2 0
-4 -4 -4 -10z"/>
<path d="M16264 7265 c26 -20 42 -19 22 0 -8 8 -21 15 -28 15 -8 -1 -6 -6 6
-15z"/>
<path d="M15370 7230 c32 -41 48 -55 55 -48 5 5 -70 88 -79 88 -4 0 7 -18 24
-40z"/>
<path d="M15076 7235 c4 -8 10 -15 15 -15 4 0 6 7 3 15 -4 8 -10 15 -15 15 -4
0 -6 -7 -3 -15z"/>
<path d="M15125 7178 c67 -75 390 -398 398 -398 5 0 -11 20 -35 43 -23 24
-119 121 -211 215 -92 95 -171 172 -174 172 -4 0 6 -15 22 -32z"/>
<path d="M16197 7204 c-4 -4 3 -14 15 -22 21 -15 21 -16 2 -24 -14 -6 -13 -7
8 -3 20 4 27 1 30 -12 2 -11 6 -14 10 -7 8 13 -55 78 -65 68z"/>
<path d="M15374 7167 c16 -20 32 -37 37 -37 18 0 8 16 -28 45 l-37 29 28 -37z"/>
<path d="M15293 7170 c6 -11 15 -20 19 -20 12 0 -3 28 -18 34 -11 4 -12 2 -1
-14z"/>
<path d="M15875 7165 c17 -15 71 -66 120 -114 92 -88 135 -124 105 -86 -23 29
-144 146 -186 180 -48 39 -77 54 -39 20z"/>
<path d="M15835 7145 c22 -19 44 -35 48 -35 5 0 -10 16 -33 35 -54 45 -67 45
-15 0z"/>
<path d="M15330 7141 c0 -5 7 -11 15 -15 8 -3 15 -1 15 3 0 5 -7 11 -15 15 -8
3 -15 1 -15 -3z"/>
<path d="M16276 7122 c-3 -5 1 -9 9 -9 8 0 12 4 9 9 -3 4 -7 8 -9 8 -2 0 -6
-4 -9 -8z"/>
<path d="M15370 7111 c0 -10 19 -25 25 -20 1 2 -3 10 -11 17 -8 7 -14 8 -14 3z"/>
<path d="M15911 7073 c51 -56 174 -173 181 -173 4 0 8 -5 8 -11 0 -5 4 -8 9
-5 5 4 11 1 13 -6 3 -7 7 -5 11 6 4 10 3 15 -4 11 -5 -4 -53 35 -106 87 -119
114 -123 118 -130 118 -4 0 4 -12 18 -27z"/>
<path d="M16337 7075 c10 -13 24 -27 31 -30 8 -3 3 8 -10 24 -28 36 -46 41
-21 6z"/>
<path d="M15290 7049 c0 -5 5 -7 10 -4 6 3 10 8 10 11 0 2 -4 4 -10 4 -5 0
-10 -5 -10 -11z"/>
<path d="M12286 7029 c-3 -13 -17 -85 -32 -159 -29 -145 -69 -270 -115 -362
-16 -32 -29 -66 -29 -76 0 -10 22 -50 50 -89 136 -193 296 -590 275 -683 -9
-41 19 -90 50 -90 19 0 25 5 25 23 0 12 0 191 0 397 l0 374 -25 26 c-50 52
-38 132 25 165 26 13 34 14 63 1 39 -16 77 -60 77 -88 0 -26 -18 -59 -46 -83
l-23 -20 -3 -385 c-2 -212 1 -391 5 -397 12 -18 38 -16 53 5 7 9 14 41 14 70
0 127 157 503 279 670 25 35 52 72 59 82 11 16 9 27 -16 77 -64 127 -162 446
-162 528 l0 25 -237 0 c-131 0 -248 3 -260 6 -17 5 -23 1 -27 -17z m104 -111
c0 -9 3 -9 12 0 16 16 31 15 25 -2 -16 -41 -32 -221 -43 -491 -6 -151 -15
-202 -33 -191 -4 3 -34 51 -66 107 -55 97 -57 104 -45 133 44 108 89 257 110
361 6 33 14 68 16 78 6 19 24 23 24 5z"/>
<path d="M15804 6971 c17 -17 36 -31 44 -31 11 0 11 3 -2 15 -8 8 -19 15 -25
15 -6 0 -11 4 -11 9 0 5 -8 12 -17 16 -11 4 -7 -5 11 -24z"/>
<path d="M15850 6970 c0 -6 7 -10 15 -10 8 0 15 2 15 4 0 2 -7 6 -15 10 -8 3
-15 1 -15 -4z"/>
<path d="M15752 6945 c-7 -8 -9 -15 -4 -15 5 0 15 7 22 15 16 19 -1 19 -18 0z"/>
<path d="M15875 6940 c-8 -13 -1 -24 14 -19 6 3 7 10 2 18 -6 10 -10 10 -16 1z"/>
<path d="M15975 6940 c3 -5 8 -10 11 -10 2 0 4 5 4 10 0 6 -5 10 -11 10 -5 0
-7 -4 -4 -10z"/>
<path d="M15700 6928 c0 -6 3 -8 7 -5 3 4 21 -4 38 -18 18 -13 35 -21 39 -18
3 4 6 2 6 -4 0 -6 7 -13 15 -17 9 -3 15 0 15 8 0 12 -39 36 -69 42 -7 1 -18 7
-24 13 -14 14 -27 14 -27 -1z"/>
<path d="M15617 6919 c7 -7 15 -10 18 -7 3 3 -2 9 -12 12 -14 6 -15 5 -6 -5z"/>
<path d="M15915 6910 c3 -5 8 -10 11 -10 2 0 4 5 4 10 0 6 -5 10 -11 10 -5 0
-7 -4 -4 -10z"/>
<path d="M15996 6905 c4 -8 11 -15 16 -15 6 0 5 6 -2 15 -7 8 -14 15 -16 15
-2 0 -1 -7 2 -15z"/>
<path d="M15650 6902 c0 -11 94 -42 102 -34 4 4 -1 8 -12 9 -11 1 -35 9 -52
17 -36 18 -38 19 -38 8z"/>
<path d="M15840 6869 c0 -5 5 -7 10 -4 6 3 10 8 10 11 0 2 -4 4 -10 4 -5 0
-10 -5 -10 -11z"/>
<path d="M15882 6854 c-28 -20 -28 -29 2 -30 16 -1 23 3 22 14 0 9 4 17 11 17
6 0 15 3 19 8 14 14 -32 7 -54 -9z"/>
<path d="M15820 6839 c0 -5 5 -7 10 -4 6 3 10 8 10 11 0 2 -4 4 -10 4 -5 0
-10 -5 -10 -11z"/>
<path d="M15946 6835 c4 -8 8 -15 10 -15 2 0 4 7 4 15 0 8 -4 15 -10 15 -5 0
-7 -7 -4 -15z"/>
<path d="M16023 6833 c9 -9 19 -14 23 -11 10 10 -6 28 -24 28 -15 0 -15 -1 1
-17z"/>
<path d="M15986 6815 c-19 -15 -19 -15 1 -15 11 0 23 7 27 15 7 19 -3 19 -28
0z"/>
<path d="M15563 6795 c0 -8 4 -12 8 -9 4 2 9 -1 11 -7 2 -7 9 -10 15 -8 6 2 1
11 -11 21 -18 13 -23 13 -23 3z"/>
<path d="M16570 6796 c0 -2 7 -9 15 -16 9 -7 15 -8 15 -2 0 5 -7 12 -15 16 -8
3 -15 4 -15 2z"/>
<path d="M16615 6748 c3 -7 17 -22 31 -33 14 -10 37 -29 52 -41 14 -13 28 -21
31 -19 2 3 2 6 0 8 -2 1 -30 24 -61 51 -32 26 -56 41 -53 34z"/>
<path d="M16020 6740 c8 -5 20 -10 25 -10 6 0 3 5 -5 10 -8 5 -19 10 -25 10
-5 0 -3 -5 5 -10z"/>
<path d="M15570 6732 c0 -4 23 -30 50 -57 51 -50 71 -56 24 -7 -14 15 -30 37
-35 50 -8 20 -39 32 -39 14z"/>
<path d="M15810 6715 c0 -8 5 -15 11 -15 5 0 7 4 4 10 -4 7 2 7 19 0 14 -5 28
-5 31 -1 6 10 -18 21 -46 21 -10 0 -19 -7 -19 -15z"/>
<path d="M16215 6710 c28 -11 57 -20 65 -19 18 1 -78 37 -100 38 -8 0 8 -9 35
-19z"/>
<path d="M16393 6621 c0 -11 4 -18 8 -15 4 2 10 0 14 -6 10 -16 42 -11 50 8 5
13 4 14 -6 5 -9 -9 -18 -8 -40 8 -27 19 -28 19 -26 0z"/>
<path d="M16230 6600 c20 -13 33 -13 25 0 -3 6 -14 10 -23 10 -15 0 -15 -2 -2
-10z"/>
<path d="M16360 6599 c0 -5 5 -7 10 -4 6 3 10 8 10 11 0 2 -4 4 -10 4 -5 0
-10 -5 -10 -11z"/>
<path d="M16290 6580 c8 -5 20 -10 25 -10 6 0 3 5 -5 10 -8 5 -19 10 -25 10
-5 0 -3 -5 5 -10z"/>
<path d="M16463 6582 c-8 -5 2 -8 25 -9 28 0 32 1 17 7 -26 11 -28 11 -42 2z"/>
<path d="M16335 6561 c5 -10 34 -17 210 -51 55 -11 144 -31 198 -44 53 -13 97
-20 97 -16 0 5 -15 11 -32 15 -18 4 -86 20 -150 36 -107 26 -307 69 -323 69
-3 0 -4 -4 0 -9z"/>
<path d="M16556 6558 c3 -5 10 -6 15 -3 13 9 11 12 -6 12 -8 0 -12 -4 -9 -9z"/>
<path d="M17098 6463 c7 -3 16 -2 19 1 4 3 -2 6 -13 5 -11 0 -14 -3 -6 -6z"/>
<path d="M16850 6446 c0 -2 9 -6 20 -9 11 -3 20 -1 20 4 0 5 -9 9 -20 9 -11 0
-20 -2 -20 -4z"/>
<path d="M16920 6430 c14 -4 34 -8 45 -8 l20 -1 -20 9 c-11 5 -31 8 -45 8
l-25 0 25 -8z"/>
<path d="M17250 6410 c0 -5 7 -10 15 -10 28 0 66 -23 61 -37 -3 -8 -1 -11 4
-8 19 12 10 25 -30 45 -45 23 -50 24 -50 10z"/>
<path d="M17038 6403 c7 -3 16 -2 19 1 4 3 -2 6 -13 5 -11 0 -14 -3 -6 -6z"/>
<path d="M17157 6366 c50 -19 112 -48 138 -65 54 -37 55 -37 48 -11 -3 11 -9
20 -15 20 -5 0 -39 14 -75 31 -70 33 -148 59 -173 58 -8 0 26 -15 77 -33z"/>
<path d="M17250 6369 c0 -5 5 -7 10 -4 6 3 10 1 10 -5 0 -6 5 -8 10 -5 6 3 10
1 10 -6 0 -7 3 -9 7 -5 5 4 -1 14 -11 22 -23 17 -36 18 -36 3z"/>
<path d="M17362 6351 c7 -12 18 -21 24 -21 7 0 19 -18 28 -41 15 -38 15 -43
-3 -84 -11 -24 -29 -50 -40 -57 -12 -7 -21 -16 -21 -21 0 -15 50 26 70 58 38
61 15 140 -52 176 -17 9 -18 8 -6 -10z"/>
<path d="M17355 6310 c-4 -6 -2 -10 3 -10 5 0 12 -13 14 -30 3 -22 -2 -35 -20
-50 -13 -12 -22 -24 -19 -26 9 -9 54 44 59 68 4 24 -27 65 -37 48z"/>
<path d="M17280 6149 c0 -5 5 -7 10 -4 6 3 10 8 10 11 0 2 -4 4 -10 4 -5 0
-10 -5 -10 -11z"/>
<path d="M17060 6070 c-63 -21 -184 -55 -267 -75 -141 -34 -184 -51 -133 -51
11 0 20 3 20 7 0 6 42 16 115 26 22 3 46 10 54 17 12 8 13 8 7 -1 -4 -8 -2
-13 6 -14 7 0 4 -5 -7 -10 l-20 -9 20 3 c13 2 19 9 17 21 -3 14 1 16 17 11 10
-3 22 -1 26 5 3 6 11 7 17 4 7 -4 8 -2 4 4 -4 8 0 12 11 12 10 0 29 3 42 7 17
4 22 3 17 -5 -4 -7 -1 -12 9 -12 11 0 15 5 12 14 -4 10 10 19 46 31 52 17 131
55 112 54 -5 -1 -62 -18 -125 -39z"/>
<path d="M17260 6077 c-55 -27 -172 -73 -205 -81 -5 -1 -41 -12 -80 -24 -81
-24 -374 -97 -425 -106 -19 -3 -45 -8 -56 -10 -12 -2 -39 -7 -60 -11 -76 -11
-98 -16 -103 -21 -8 -8 26 -4 169 22 329 58 757 191 825 255 14 14 6 11 -65
-24z"/>
<path d="M17120 6050 c-18 -12 -2 -12 25 0 13 6 15 9 5 9 -8 0 -22 -4 -30 -9z"/>
<path d="M17055 6030 c-3 -5 1 -10 9 -10 9 0 16 5 16 10 0 6 -4 10 -9 10 -6 0
-13 -4 -16 -10z"/>
<path d="M16921 5989 c-18 -6 -31 -13 -28 -16 8 -8 67 7 67 18 0 5 -1 9 -2 8
-2 0 -18 -5 -37 -10z"/>
<path d="M16796 5951 c-4 -5 3 -7 14 -4 23 6 26 13 6 13 -8 0 -17 -4 -20 -9z"/>
<path d="M16598 5943 c7 -3 16 -2 19 1 4 3 -2 6 -13 5 -11 0 -14 -3 -6 -6z"/>
<path d="M16543 5933 c9 -2 23 -2 30 0 6 3 -1 5 -18 5 -16 0 -22 -2 -12 -5z"/>
<path d="M16460 5920 l-25 -8 25 0 c14 0 34 3 45 8 l20 9 -20 -1 c-11 0 -31
-4 -45 -8z"/>
<path d="M16310 5895 c-187 -33 -452 -68 -780 -105 -313 -34 -411 -44 -675
-65 -33 -3 -85 -8 -115 -10 -250 -22 -655 -41 -1165 -55 -227 -7 -195 -7 165
-3 380 4 575 8 575 13 0 1 34 3 75 6 41 2 120 8 175 12 55 5 137 8 182 8 44
-1 79 2 77 5 -2 3 22 6 54 7 31 0 80 3 107 6 68 7 163 17 205 21 110 10 169
16 204 21 21 4 57 7 80 9 23 1 52 5 66 8 14 3 57 9 95 12 39 3 86 8 105 11 19
2 51 6 70 9 90 12 117 16 140 20 14 3 43 8 65 10 70 9 298 47 360 60 77 17 33
17 -65 0z"/>
<path d="M16285 5820 l-30 -8 33 -1 c17 0 32 4 32 9 0 6 -1 9 -2 9 -2 -1 -16
-5 -33 -9z"/>
<path d="M16058 5813 c7 -3 16 -2 19 1 4 3 -2 6 -13 5 -11 0 -14 -3 -6 -6z"/>
<path d="M15894 5797 c-8 -4 -20 -5 -27 -1 -9 5 -9 4 -1 -5 8 -9 18 -10 30 -3
11 5 24 7 31 5 7 -2 20 0 29 5 13 7 9 9 -15 8 -18 0 -39 -5 -47 -9z"/>
<path d="M16179 5806 c-6 -6 -67 -15 -174 -26 -49 -6 -126 -14 -170 -19 -44
-5 -143 -17 -219 -26 -77 -9 -143 -18 -146 -20 -4 -2 -42 -7 -86 -10 -43 -4
-82 -10 -86 -14 -5 -4 7 -6 25 -4 427 40 909 102 926 119 2 2 -11 4 -31 4 -19
0 -37 -2 -39 -4z"/>
<path d="M15800 5782 c0 -5 7 -9 15 -9 8 0 15 4 15 9 0 4 -7 8 -15 8 -8 0 -15
-4 -15 -8z"/>
<path d="M15710 5770 c0 -5 7 -10 16 -10 8 0 12 5 9 10 -3 6 -10 10 -16 10 -5
0 -9 -4 -9 -10z"/>
<path d="M15758 5773 c6 -2 18 -2 25 0 6 3 1 5 -13 5 -14 0 -19 -2 -12 -5z"/>
<path d="M15590 5760 l-25 -8 28 -1 c15 -1 27 4 27 9 0 6 -1 10 -2 9 -2 -1
-14 -5 -28 -9z"/>
<path d="M15630 5759 c0 -5 14 -7 32 -4 45 8 46 13 4 13 -20 0 -36 -4 -36 -9z"/>
<path d="M15493 5753 c-24 -2 -43 -9 -43 -15 0 -6 12 -8 31 -4 17 3 42 6 55 6
13 0 24 5 24 10 0 6 -6 9 -12 8 -7 -1 -32 -3 -55 -5z"/>
<path d="M15364 5728 c-7 -10 15 -9 41 2 17 7 16 8 -8 7 -16 -1 -31 -5 -33 -9z"/>
<path d="M15218 5713 c6 -2 18 -2 25 0 6 3 1 5 -13 5 -14 0 -19 -2 -12 -5z"/>
<path d="M14961 5699 c-44 -13 -37 -16 23 -11 33 3 44 7 35 13 -16 10 -14 10
-58 -2z"/>
<path d="M15075 5700 c4 -6 11 -8 16 -5 14 9 11 15 -7 15 -8 0 -12 -5 -9 -10z"/>
<path d="M14898 5683 c7 -3 16 -2 19 1 4 3 -2 6 -13 5 -11 0 -14 -3 -6 -6z"/>
<path d="M15248 5683 c7 -3 16 -2 19 1 4 3 -2 6 -13 5 -11 0 -14 -3 -6 -6z"/>
<path d="M15148 5673 c7 -3 16 -2 19 1 4 3 -2 6 -13 5 -11 0 -14 -3 -6 -6z"/>
<path d="M14462 5661 c-11 -6 -9 -9 6 -13 15 -4 19 -2 15 8 -6 16 -4 16 -21 5z"/>
<path d="M14497 5659 c7 -7 15 -10 18 -7 3 3 -2 9 -12 12 -14 6 -15 5 -6 -5z"/>
<path d="M14907 5659 c-15 -4 -78 -10 -140 -14 -61 -3 -130 -8 -152 -10 -72
-7 -406 -23 -497 -24 -32 -1 -58 -4 -58 -8 0 -10 129 -6 425 13 356 22 380 24
500 39 l110 13 -80 -1 c-44 0 -93 -4 -108 -8z"/>
<path d="M14020 5600 c0 -5 7 -10 15 -10 8 0 15 5 15 10 0 6 -7 10 -15 10 -8
0 -15 -4 -15 -10z"/>
<path d="M13485 5590 l-320 -5 340 -2 c187 0 378 2 425 6 l85 8 -105 -1 c-58
0 -249 -3 -425 -6z"/>
<path d="M17192 5080 c-106 -23 -209 -93 -258 -176 -30 -52 -56 -170 -53 -244
l3 -55 -100 -5 -99 -5 0 -105 0 -105 100 -5 100 -5 2 -475 2 -475 136 -3 135
-3 0 481 0 480 155 0 155 0 0 110 0 109 -152 3 -153 3 -3 65 c-3 75 23 139 71
174 36 27 156 28 207 3 18 -9 36 -15 40 -12 4 2 22 43 40 89 38 100 37 104
-48 137 -65 24 -210 34 -280 19z"/>
<path d="M10277 4972 l-227 -2 2 -773 3 -772 140 0 c117 0 140 2 141 15 1 8 2
111 3 228 l1 212 204 0 204 0 151 -225 c84 -124 157 -226 164 -226 7 -1 79 -2
160 -4 125 -2 147 0 142 12 -5 16 -164 248 -270 398 -35 50 -64 95 -64 101 -1
5 19 19 42 31 68 33 164 119 197 176 51 87 71 169 71 282 -1 231 -89 383 -274
473 -158 77 -201 81 -790 74z m603 -268 c65 -30 107 -69 138 -128 23 -44 27
-63 27 -136 0 -106 -27 -172 -92 -230 -83 -73 -126 -83 -385 -88 l-228 -4 0
304 c0 168 2 307 4 309 2 2 114 2 248 -1 219 -5 247 -7 288 -26z"/>
<path d="M13213 4972 l-273 -2 0 -770 0 -770 168 -2 c574 -5 651 -3 754 25
111 29 227 86 310 152 151 120 253 339 263 560 4 113 -6 188 -44 307 -64 198
-222 368 -410 439 -165 62 -226 67 -768 61z m559 -258 c119 -28 239 -117 306
-227 65 -107 91 -301 57 -431 -38 -145 -137 -270 -259 -327 -103 -48 -192 -60
-436 -57 l-215 3 -1 527 -1 528 176 2 c231 4 292 1 373 -18z"/>
<path d="M17670 4740 l0 -140 -90 0 -90 0 0 -110 0 -110 90 0 90 0 0 -333 c0
-372 4 -401 66 -493 70 -104 164 -144 340 -144 97 0 199 21 243 49 22 14 -55
225 -78 215 -126 -54 -247 -40 -279 31 -9 18 -12 120 -12 350 l0 325 150 0
150 0 0 110 0 110 -149 0 -148 0 -7 31 c-3 17 -6 80 -6 140 l0 109 -135 0
-135 0 0 -140z"/>
<path d="M12001 4619 c-234 -41 -405 -188 -473 -404 -30 -92 -32 -279 -4 -370
84 -281 311 -435 638 -435 113 0 212 18 285 50 58 26 147 92 170 126 16 25 16
26 -62 104 l-79 79 -33 -30 c-162 -141 -459 -124 -585 34 -37 47 -78 125 -78
148 0 5 190 9 465 9 l465 0 0 93 c-1 289 -163 513 -424 583 -67 19 -217 25
-285 13z m267 -248 c83 -43 154 -137 176 -233 l6 -28 -336 0 -336 0 7 37 c19
102 106 200 214 240 58 21 215 12 269 -16z"/>
<path d="M15856 4620 c-109 -18 -180 -40 -266 -82 -63 -32 -86 -49 -88 -65 -3
-19 55 -149 79 -179 7 -8 31 0 84 31 90 51 170 70 290 69 70 -1 102 -6 141
-23 88 -38 138 -107 145 -200 l4 -44 -230 -2 c-178 -1 -243 -5 -287 -18 -188
-54 -274 -149 -285 -314 -9 -123 12 -180 95 -263 89 -88 148 -110 317 -117
173 -7 292 26 366 104 18 18 37 33 41 33 5 0 6 -27 2 -59 l-6 -59 73 -7 c41
-3 101 -5 133 -3 l59 3 1 390 c0 424 -4 465 -54 565 -59 118 -151 190 -285
225 -74 19 -250 27 -329 15z m392 -723 c2 -21 -4 -62 -13 -93 -33 -116 -141
-185 -290 -187 -70 -1 -90 3 -131 24 -138 71 -118 243 34 289 15 5 110 8 212
7 l185 -2 3 -38z"/>
<path d="M15169 4606 c-68 -19 -146 -65 -195 -113 -23 -24 -45 -43 -48 -43 -3
0 -6 36 -6 80 l0 81 -126 -3 -127 -3 0 -290 c0 -159 1 -426 2 -591 l1 -301
137 1 136 1 1 340 c2 371 4 386 65 478 50 78 170 132 276 125 l54 -3 6 60 c4
33 5 89 3 125 l-3 65 -65 2 c-36 1 -86 -4 -111 -11z"/>
<path d="M10500 2775 c0 -176 2 -205 15 -205 13 0 15 29 15 205 0 176 -2 205
-15 205 -13 0 -15 -29 -15 -205z"/>
<path d="M11310 2776 c0 -168 3 -206 14 -206 8 0 15 16 19 41 5 40 48 99 71
99 6 0 26 -22 44 -49 41 -61 76 -94 95 -89 12 2 8 14 -20 51 -23 31 -39 44
-43 37 -5 -8 -10 -9 -14 -2 -3 6 -1 12 6 14 7 3 4 15 -11 35 l-23 31 25 34
c15 18 40 42 57 53 34 23 38 35 12 35 -10 0 -56 -34 -102 -75 -45 -42 -85 -73
-87 -71 -3 2 -6 62 -6 133 -2 113 -4 128 -20 131 -16 3 -17 -12 -17 -202z"/>
<path d="M15219 2973 c-1 -11 -6 -89 -8 -132 -1 -32 -2 -33 -18 -19 -65 57
-182 37 -217 -36 -62 -130 60 -269 182 -207 49 25 62 26 62 6 0 -8 7 -15 15
-15 13 0 15 27 13 202 -2 150 -6 202 -15 206 -7 2 -13 0 -14 -5z m-73 -153 c6
0 23 -12 38 -26 21 -22 26 -36 26 -76 0 -60 -11 -83 -50 -103 -66 -34 -138 -8
-160 60 -27 81 37 163 115 149 11 -2 25 -4 31 -4z"/>
<path d="M15353 2964 c-4 -11 1 -22 12 -31 16 -11 21 -11 34 1 12 12 12 18 1
30 -16 21 -39 20 -47 0z"/>
<path d="M17180 2776 c0 -199 1 -206 20 -206 22 0 28 35 8 43 -10 4 -10 6 0 6
8 1 12 22 12 72 0 67 2 73 34 105 36 36 67 42 109 23 37 -17 47 -45 50 -149 3
-77 6 -96 19 -98 13 -3 16 11 17 92 2 120 -13 160 -66 182 -44 19 -96 13 -135
-16 l-27 -20 -3 82 c-3 70 -6 83 -20 86 -17 3 -18 -12 -18 -202z"/>
<path d="M17550 2965 c-15 -17 -5 -35 20 -35 19 0 30 17 23 38 -6 16 -28 15
-43 -3z"/>
<path d="M9702 2800 l3 -162 38 -33 c62 -54 155 -56 220 -5 37 29 47 77 47
228 0 125 -1 132 -20 132 -19 0 -20 -7 -19 -144 1 -117 -2 -148 -15 -168 -46
-70 -173 -62 -211 13 -12 23 -16 59 -14 162 1 116 -1 132 -16 135 -15 3 -16
-11 -13 -158z"/>
<path d="M11740 2955 c0 -3 8 -18 18 -33 22 -32 75 -119 110 -181 19 -32 26
-61 27 -105 2 -48 6 -62 19 -64 13 -3 16 7 16 60 0 71 4 81 95 226 31 51 55
95 53 98 -15 14 -43 -18 -95 -106 -32 -55 -62 -99 -68 -99 -5 -1 -36 44 -68
98 -32 55 -65 102 -73 105 -19 7 -34 8 -34 1z"/>
<path d="M13150 2940 c0 -18 7 -20 70 -20 l70 0 0 -176 c0 -162 1 -175 18
-172 15 3 17 19 17 176 l0 172 66 0 c48 0 68 4 72 14 3 8 3 17 0 20 -4 3 -75
6 -160 6 -146 0 -153 -1 -153 -20z"/>
<path d="M14630 2765 l0 -195 135 0 c113 0 135 2 135 15 0 12 -16 15 -82 16
-81 1 -139 6 -147 14 -6 6 -2 115 4 126 3 5 47 8 97 8 65 0 93 3 99 13 7 10
-13 14 -94 19 -56 4 -103 7 -104 8 -2 0 -3 30 -3 66 l0 65 110 0 c103 0 110 1
110 20 0 19 -7 20 -130 20 l-130 0 0 -195z"/>
<path d="M16001 2942 c-6 -10 -28 -59 -49 -108 -22 -49 -58 -128 -81 -176 -36
-80 -38 -88 -21 -88 14 0 26 15 41 50 l21 50 112 0 112 0 26 -47 c14 -27 33
-49 42 -51 14 -3 12 6 -10 55 -50 112 -115 258 -131 296 -17 41 -46 50 -62 19z
m75 -130 c23 -53 39 -101 36 -106 -5 -9 -159 -2 -169 8 -3 3 10 43 29 88 19
46 38 92 42 102 9 26 14 18 62 -92z"/>
<path d="M14130 2897 c0 -26 -5 -36 -20 -40 -25 -6 -26 -27 -1 -34 16 -4 19
-19 26 -124 l7 -119 39 -11 c31 -10 44 -9 67 2 l27 14 -45 3 c-40 3 -84 22
-51 22 10 0 10 4 3 13 -10 12 -15 62 -13 150 l1 47 46 0 c38 0 45 3 42 18 -2
9 -10 16 -18 14 -7 -2 -25 0 -41 3 -22 5 -28 13 -31 38 -2 21 -9 33 -20 35
-14 3 -18 -4 -18 -31z"/>
<path d="M15518 2893 c-2 -31 -7 -39 -26 -41 -27 -4 -24 -27 4 -27 17 0 19
-10 24 -111 3 -73 10 -117 19 -127 18 -23 111 -24 111 -2 0 10 -10 15 -29 15
-16 0 -38 8 -50 18 -20 15 -22 25 -19 107 l3 90 43 3 c28 2 42 8 42 18 0 8 -8
14 -17 15 -26 1 -54 7 -59 12 -3 3 -6 18 -8 33 -2 17 -10 30 -19 32 -12 2 -17
-7 -19 -35z"/>
<path d="M16968 2893 c-2 -31 -7 -39 -25 -41 -13 -2 -23 -7 -23 -12 0 -5 10
-10 23 -12 21 -3 22 -8 27 -113 3 -60 9 -116 13 -123 22 -33 117 -38 117 -6 0
11 -9 13 -41 8 -33 -6 -41 -4 -37 7 3 8 -2 20 -9 27 -10 11 -13 39 -11 106 l3
91 43 -3 c33 -3 42 0 42 12 0 9 -3 16 -7 17 -5 1 -21 2 -38 4 -16 1 -33 3 -37
4 -5 0 -8 17 -8 36 0 50 -28 48 -32 -2z"/>
<path d="M10128 2838 c-3 -17 -2 -192 2 -260 0 -5 6 -8 14 -8 11 0 15 22 18
99 3 89 6 102 27 125 32 34 80 42 120 21 42 -21 51 -49 51 -156 0 -72 3 -89
15 -89 12 0 15 19 15 114 0 105 -2 115 -24 139 -44 47 -138 48 -186 2 l-27
-25 5 30 c5 36 -23 44 -30 8z"/>
<path d="M10716 2850 c-86 -26 -123 -145 -70 -225 17 -26 89 -65 119 -65 34 0
107 42 126 74 30 49 26 126 -8 167 -44 52 -101 68 -167 49z m137 -61 c79 -96
-25 -229 -138 -177 -56 25 -74 124 -32 173 41 48 132 50 170 4z"/>
<path d="M11050 2843 c-51 -26 -80 -76 -80 -134 0 -42 5 -55 36 -89 60 -66
158 -76 208 -21 28 31 11 41 -31 19 -79 -41 -163 -5 -178 76 -8 42 16 98 50
116 34 18 97 16 129 -5 23 -15 29 -16 36 -4 7 10 0 19 -21 33 -43 27 -107 31
-149 9z"/>
<path d="M12180 2849 c-70 -28 -110 -106 -90 -178 12 -45 64 -96 108 -106 89
-19 182 59 182 153 0 96 -109 167 -200 131z m120 -47 c82 -61 52 -186 -49
-199 -79 -11 -131 35 -131 113 0 93 103 143 180 86z"/>
<path d="M12467 2853 c-4 -3 -7 -49 -7 -101 0 -110 21 -164 73 -182 43 -15 58
-13 110 13 25 13 46 21 45 18 -2 -20 4 -31 17 -31 13 0 15 23 15 146 0 133 -1
145 -17 142 -16 -3 -18 -16 -20 -97 -1 -102 -12 -133 -50 -150 -33 -15 -85
-14 -108 3 -20 15 -33 83 -34 184 -1 57 -7 72 -24 55z"/>
<path d="M12837 2854 c-4 -4 -7 -70 -7 -146 0 -125 2 -139 17 -136 13 2 17 18
19 93 4 120 11 131 96 159 11 3 15 11 12 21 -9 21 -26 19 -68 -10 -45 -30 -46
-30 -43 -4 2 22 -13 35 -26 23z"/>
<path d="M13565 2853 c-77 -20 -119 -120 -85 -203 15 -35 76 -79 122 -86 39
-7 105 17 114 41 10 24 0 27 -35 9 -49 -25 -118 -13 -153 26 -50 54 -42 60 85
60 61 0 118 4 126 9 17 11 8 53 -21 94 -32 45 -92 65 -153 50z m95 -39 c29
-18 64 -67 53 -78 -3 -3 -53 -6 -110 -6 -119 0 -127 8 -69 66 39 39 80 45 126
18z"/>
<path d="M13811 2828 c13 -18 36 -50 52 -70 16 -20 27 -43 24 -50 -3 -7 -28
-41 -56 -75 -39 -49 -47 -63 -33 -63 10 0 40 25 67 56 l48 56 49 -56 c28 -31
58 -56 69 -56 15 0 8 14 -36 71 -30 39 -55 73 -55 76 0 3 23 34 51 70 28 36
49 67 46 69 -10 10 -35 -10 -72 -56 -22 -28 -43 -50 -47 -50 -5 0 -27 25 -51
55 -23 31 -50 55 -60 55 -17 0 -16 -3 4 -32z"/>
<path d="M15367 2854 c-4 -4 -7 -70 -7 -146 0 -133 1 -138 21 -138 20 0 20 4
17 142 -3 132 -10 163 -31 142z"/>
<path d="M16280 2715 c0 -138 1 -145 20 -145 19 0 20 7 20 99 0 79 3 103 18
120 38 47 133 42 159 -9 7 -15 13 -63 13 -117 0 -73 3 -93 14 -93 19 0 30 83
21 160 -8 73 -32 106 -86 120 -44 12 -70 7 -111 -21 -34 -25 -38 -24 -38 6 0
16 -6 25 -15 25 -13 0 -15 -23 -15 -145z"/>
<path d="M16600 2856 c0 -3 27 -62 60 -132 63 -133 71 -174 44 -213 -15 -20
-23 -23 -59 -18 -23 4 -45 3 -49 0 -14 -14 19 -33 59 -33 58 0 77 25 145 186
29 71 64 146 77 166 28 45 28 48 4 48 -12 0 -23 -12 -32 -32 -7 -18 -30 -69
-50 -112 -21 -44 -36 -83 -33 -88 3 -4 -1 -8 -9 -8 -8 0 -35 48 -67 120 -40
91 -57 120 -71 120 -11 0 -19 -2 -19 -4z"/>
<path d="M17556 2853 c-3 -4 -6 -69 -6 -145 0 -131 1 -138 20 -138 19 0 20 7
20 139 0 110 -3 140 -14 144 -8 3 -17 3 -20 0z"/>
<path d="M17705 2850 c-3 -5 -5 -71 -3 -145 2 -122 4 -135 20 -135 16 0 18 11
18 94 0 86 2 97 25 124 32 38 72 48 118 29 44 -19 54 -49 50 -159 -2 -83 -1
-88 18 -88 20 0 21 5 17 112 -2 78 -7 113 -16 116 -6 2 -10 8 -7 12 3 5 -6 17
-20 26 -34 22 -117 22 -152 -2 -33 -21 -39 -20 -35 6 3 21 -22 28 -33 10z"/>
<path d="M18146 2850 c-82 -25 -122 -131 -76 -205 41 -67 146 -84 212 -35 l31
23 -5 -53 c-4 -40 -11 -57 -29 -71 -30 -23 -118 -25 -160 -4 -28 15 -49 13
-49 -4 0 -4 19 -16 41 -27 79 -35 191 -16 220 38 8 14 12 80 13 182 1 146 -1
161 -16 164 -14 3 -18 -3 -18 -29 l0 -32 -25 25 c-35 35 -82 45 -139 28z m143
-65 c40 -39 25 -131 -25 -154 -59 -27 -156 -2 -171 44 -18 56 8 118 59 139 40
17 105 3 137 -29z"/>
<path d="M18446 2617 c-26 -19 -14 -47 19 -47 27 0 32 16 12 43 -11 15 -15 16
-31 4z"/>
<path d="M14330 2595 c0 -18 5 -25 20 -25 15 0 20 7 20 25 0 18 -5 25 -20 25
-15 0 -20 -7 -20 -25z"/>
</g>
</svg>
